<svg width="66" height="67" viewBox="0 0 66 67" fill="none" xmlns="http://www.w3.org/2000/svg">
<path d="M32.7496 63.5008C49.2493 63.5008 62.625 50.1251 62.625 33.6254C62.625 17.1257 49.2493 3.75 32.7496 3.75C16.2498 3.75 2.87415 17.1257 2.87415 33.6254C2.87415 50.1251 16.2498 63.5008 32.7496 63.5008Z" stroke="#EB5757" stroke-width="5.66152" stroke-miterlimit="10" stroke-linecap="round" stroke-linejoin="round"/>
<path d="M50.5823 34.7545C50.8646 36.7126 51.0498 39.3911 50.1712 40.4164C48.719 42.1125 39.5249 42.1125 39.5249 38.7203C39.5249 37.0129 41.0381 35.8928 39.5859 34.1967C38.1585 32.5299 35.5975 32.5028 32.7496 32.5006C29.9016 32.4983 27.3428 32.5277 25.9132 34.1967C24.461 35.8928 25.9742 37.0129 25.9742 38.7203C25.9742 42.1103 16.7801 42.1103 15.3279 40.4164C14.4493 39.3911 14.6345 36.7126 14.9168 34.7545C15.1336 33.4469 15.6824 32.0376 17.4418 30.2376C20.0797 27.7759 24.0703 25.7659 32.6095 25.7207H32.8941C41.4333 25.7636 45.424 27.7759 48.0618 30.2376C49.8189 32.0376 50.37 33.4469 50.5868 34.7545H50.5823Z" fill="#EB5757"/>
</svg>
