<svg width="66" height="66" viewBox="0 0 66 66" fill="none" xmlns="http://www.w3.org/2000/svg">
<path d="M33.2508 62.5C49.7503 62.5 63.1258 49.1245 63.1258 32.625C63.1258 16.1255 49.7503 2.75 33.2508 2.75C16.7513 2.75 3.37579 16.1255 3.37579 32.625C3.37579 49.1245 16.7513 62.5 33.2508 62.5Z" stroke="#A8D0E6" stroke-width="5.08628" stroke-miterlimit="10" stroke-linecap="round" stroke-linejoin="round"/>
<path fill-rule="evenodd" clip-rule="evenodd" d="M20.6431 36.1567C20.643 36.1567 20.643 36.1566 20.6429 36.1566C17.1613 32.675 17.1613 27.0303 20.6429 23.5487C24.1245 20.0671 29.7692 20.0671 33.2507 23.5486C36.7323 20.0671 42.377 20.0671 45.8586 23.5487C49.3401 27.0303 49.3401 32.675 45.8586 36.1566L45.8584 36.1567L45.8586 36.1569L34.665 47.3506C33.8839 48.1316 32.6176 48.1316 31.8365 47.3506L20.6429 36.1569L20.6431 36.1567Z" fill="#A8D0E6"/>
</svg>
