<svg width="67" height="67" viewBox="0 0 67 67" fill="none" xmlns="http://www.w3.org/2000/svg">
<path d="M21.3901 38.2356C21.3901 38.878 21.6452 39.494 22.0995 39.9482C22.5537 40.4025 23.1698 40.6576 23.8121 40.6576C24.4545 40.6576 25.0706 40.4025 25.5248 39.9482C25.979 39.494 26.2342 38.878 26.2342 38.2356V24.7059L29.3659 27.8376C29.8227 28.2788 30.4346 28.523 31.0696 28.5175C31.7047 28.5119 32.3122 28.2572 32.7612 27.8081C33.2103 27.3591 33.465 26.7516 33.4705 26.1165C33.4761 25.4815 33.2319 24.8697 32.7907 24.4128L25.5245 17.1466C25.0703 16.6926 24.4544 16.4375 23.8121 16.4375C23.1699 16.4375 22.5539 16.6926 22.0997 17.1466L14.8335 24.4128C14.3923 24.8697 14.1482 25.4815 14.1537 26.1165C14.1592 26.7516 14.414 27.3591 14.863 27.8081C15.3121 28.2572 15.9196 28.5119 16.5546 28.5175C17.1897 28.523 17.8015 28.2788 18.2583 27.8376L21.3901 24.7059V38.2356ZM45.6107 28.5473C45.6107 27.9049 45.3555 27.2889 44.9013 26.8347C44.4471 26.3804 43.831 26.1252 43.1887 26.1252C42.5463 26.1252 41.9302 26.3804 41.476 26.8347C41.0218 27.2889 40.7666 27.9049 40.7666 28.5473V42.077L37.6349 38.9452C37.1781 38.504 36.5662 38.2599 35.9312 38.2654C35.2961 38.271 34.6886 38.5257 34.2396 38.9748C33.7905 39.4238 33.5358 40.0313 33.5303 40.6664C33.5247 41.3014 33.7689 41.9132 34.2101 42.37L41.4763 49.6362C41.9305 50.0903 42.5464 50.3454 43.1887 50.3454C43.8309 50.3454 44.4469 50.0903 44.9011 49.6362L52.1673 42.37C52.6085 41.9132 52.8526 41.3014 52.8471 40.6664C52.8416 40.0313 52.5868 39.4238 52.1378 38.9748C51.6887 38.5257 51.0812 38.271 50.4461 38.2654C49.8111 38.2599 49.1993 38.504 48.7425 38.9452L45.6107 42.077V28.5473Z" fill="#A8D0E6"/>
<rect x="3.50037" y="3.3916" width="60" height="60" rx="30" stroke="#A8D0E6" stroke-width="5.9"/>
</svg>
