<?xml version="1.0" encoding="utf-8"?>
<!-- Generator: Adobe Illustrator 24.2.0, SVG Export Plug-In . SVG Version: 6.00 Build 0)  -->
<svg version="1.1" id="Layer_1" xmlns="http://www.w3.org/2000/svg" xmlns:xlink="http://www.w3.org/1999/xlink" x="0px" y="0px"
	 viewBox="0 0 376 667" style="enable-background:new 0 0 376 667;" xml:space="preserve">
<style type="text/css">
	.st0{clip-path:url(#SVGID_2_);}
	.st1{fill:#1C2138;}
	.st2{fill:none;stroke:#374785;stroke-width:6;stroke-miterlimit:10;}
	.st3{fill:none;stroke:#A8D0E6;stroke-width:6;stroke-miterlimit:10;}
</style>
<g>
	<defs>
		<rect id="SVGID_1_" x="0.5" width="375" height="667"/>
	</defs>
	<clipPath id="SVGID_2_">
		<use xlink:href="#SVGID_1_"  style="overflow:visible;"/>
	</clipPath>
	<g class="st0">
		<rect x="0.5" class="st1" width="375" height="667"/>
		<path class="st2" d="M-61.2,391c33.1-9,79.7-17,103.7,6.6c27.9,27.4,4,76.5,30.4,99.4c25,21.7,60-23.3,120.4-15
			c57.9,7.9,69.9,52.8,117.1,51.4c35.8-1.1,64.7-27.9,83.4-50.2"/>
		<path class="st3" d="M673.1,362.7c-50.2,11.9-121.3,20.9-160.3-19.9c-45.4-47.4-12.8-125.9-55.4-165.8
			c-40.4-37.7-90.4,33.1-184,14.2c-89.8-18.1-112.2-92.8-184.8-94.5c-55-1.3-97.2,40.1-124.1,75.1"/>
	</g>
</g>
</svg>
