<svg width="376" height="667" viewBox="0 0 376 667" fill="none" xmlns="http://www.w3.org/2000/svg">
<g clip-path="url(#clip0)">
<rect width="375" height="667" transform="translate(0.5)" fill="#24305E"/>
<path d="M-61.2375 390.982C-28.1511 381.96 18.4558 374.005 42.5069 397.632C70.4271 425.076 46.5367 474.17 72.8788 497.079C97.8793 518.746 132.867 473.731 193.234 482.034C251.097 489.967 263.089 534.879 310.324 533.419C346.111 532.317 374.989 505.555 393.735 483.233" stroke="#374785" stroke-width="6" stroke-miterlimit="10"/>
<path d="M673.101 362.716C622.932 374.634 551.85 383.625 512.764 342.776C467.388 295.331 499.92 216.884 457.368 177.014C416.99 139.298 367.014 210.087 273.333 191.213C183.539 173.163 161.178 98.452 88.5642 96.735C33.5496 95.4266 -8.59976 136.808 -35.5308 171.791" stroke="#A8D0E6" stroke-width="6" stroke-miterlimit="10"/>
</g>
<defs>
<clipPath id="clip0">
<rect width="375" height="667" fill="white" transform="translate(0.5)"/>
</clipPath>
</defs>
</svg>
