<svg width="60" height="60" viewBox="0 0 60 60" fill="none" xmlns="http://www.w3.org/2000/svg">
<path d="M30.1169 56.5724C44.9402 56.5724 56.9568 44.5558 56.9568 29.7325C56.9568 14.9092 44.9402 2.89258 30.1169 2.89258C15.2936 2.89258 3.27698 14.9092 3.27698 29.7325C3.27698 44.5558 15.2936 56.5724 30.1169 56.5724Z" stroke="#A8D0E6" stroke-width="5.08628" stroke-miterlimit="10" stroke-linecap="round" stroke-linejoin="round"/>
<path fill-rule="evenodd" clip-rule="evenodd" d="M18.79 32.9054C18.7899 32.9054 18.7899 32.9054 18.7899 32.9053C15.662 29.7775 15.662 24.7062 18.7899 21.5783C21.9177 18.4505 26.989 18.4505 30.1168 21.5783C33.2447 18.4505 38.3159 18.4505 41.4438 21.5783C44.5717 24.7062 44.5717 29.7775 41.4438 32.9053L41.4437 32.9054L41.4438 32.9056L31.531 42.8184C30.75 43.5994 29.4837 43.5994 28.7026 42.8184L18.7898 32.9056L18.79 32.9054Z" fill="#A8D0E6"/>
</svg>
