<svg width="161" height="359" viewBox="0 0 161 359" fill="none" xmlns="http://www.w3.org/2000/svg">
<path d="M160.844 0.600098H0.843994V358.729H160.844V0.600098Z" fill="#24305E"/>
<path d="M134.434 150.1C118.074 146.24 101.054 151.43 84.2539 151.42C78.0039 151.42 71.5239 150.73 65.7139 153.02C61.4839 154.69 57.9939 157.8 54.8739 161.11C50.3639 165.88 46.3739 171.27 44.0239 177.41C41.6739 183.55 41.0239 190.5 43.2639 196.69C45.2639 202.22 49.1939 206.75 52.5739 211.55C55.9539 216.35 58.8739 221.97 58.2239 227.8C57.2239 236.54 48.5039 243.7 49.8139 252.39C50.5139 257 53.9139 260.64 56.8139 264.31C64.3539 273.95 69.5039 286.09 79.9739 292.43C85.8039 295.95 92.7539 297.27 99.5639 297.29C103.226 297.437 106.878 296.813 110.284 295.46C113.039 294.098 115.579 292.339 117.824 290.24C122.004 286.65 126.094 282.84 128.984 278.17C132.232 272.698 133.745 266.369 133.324 260.019C132.903 253.669 130.567 247.596 126.624 242.6C124.95 240.797 123.412 238.872 122.024 236.84C117.954 229.93 120.764 220.94 125.204 214.26C128.764 208.9 133.354 204.1 135.564 198.06C136.507 195.234 137.177 192.324 137.564 189.37C138.774 181.72 139.994 174.01 140.104 166.25C140.134 160.83 141.254 151.71 134.434 150.1Z" fill="#A8D0E6"/>
<path d="M145.094 305.77C148.044 305.93 151.164 306.17 153.584 307.88C155.419 309.349 156.841 311.268 157.714 313.45C159.184 316.62 160.214 320.54 158.254 323.45C157.138 324.86 155.683 325.965 154.024 326.66C135.174 336.13 113.024 335.18 92.024 335.75C75.844 336.19 59.204 337.6 43.744 332.79C40.274 331.71 36.814 330.27 34.164 327.79C28.594 322.55 29.634 314.34 36.284 310.53C38.384 309.33 40.874 309.29 43.224 309.05C47.714 308.59 52.224 308.05 56.704 307.61C75.434 305.8 94.264 304.89 113.084 304.9C123.764 304.887 134.434 305.177 145.094 305.77Z" fill="#A8D0E6"/>
<path d="M74.214 152.19C75.054 154.41 76.3039 157.02 74.9439 158.97C74.3739 159.78 73.344 160.61 73.754 161.51C74.164 162.41 75.694 162.1 76.754 162.39C78.064 162.75 78.6539 164.24 79.0539 165.54L80.9839 171.81C81.0674 172.213 81.2995 172.57 81.634 172.81C81.8489 172.886 82.0781 172.913 82.3048 172.888C82.5314 172.864 82.7498 172.79 82.9439 172.67C85.2021 171.62 87.0585 169.866 88.2339 167.67C89.8139 172.1 90.6439 174.18 91.0139 178.86C91.7539 188.32 93.4839 200.37 97.8039 208.86C99.2432 211.376 100.484 214.001 101.514 216.71C102.304 219.11 102.634 221.66 103.584 224C104.534 226.34 106.304 228.56 108.774 229.12C111.834 229.82 115.004 227.6 116.254 224.72C117.504 221.84 117.174 218.51 116.364 215.47C115.554 212.43 114.274 209.54 113.624 206.47C113.152 203.737 112.884 200.973 112.824 198.2C112.362 191.369 111.524 184.569 110.314 177.83C109.804 174.83 109.204 171.67 107.504 169.1C106.094 166.97 104.014 165.39 102.294 163.5C99.8529 160.841 98.1319 157.601 97.2939 154.09C96.9851 152.206 96.5475 150.345 95.9839 148.52C94.3339 144.24 89.8639 141.43 85.2939 141.07C81.7445 140.859 78.2158 141.742 75.1839 143.6C71.9439 145.6 73.004 149 74.214 152.19Z" fill="#FFDACE"/>
<path d="M89.3641 170.82C91.4838 171.788 93.495 172.978 95.3641 174.37C96.5507 172.572 97.8889 170.88 99.3641 169.31C100.835 167.722 101.72 165.679 101.874 163.52C104.594 164.74 106.154 167.59 107.484 170.27C109.532 174.151 111.239 178.203 112.584 182.38C114.774 189.7 114.974 197.43 115.584 205.04C115.926 209.52 116.54 213.975 117.424 218.38C118.224 222.16 119.284 226.23 117.684 229.75C117.049 231.036 116.135 232.164 115.009 233.051C113.883 233.939 112.573 234.564 111.174 234.88C109.867 235.258 108.481 235.258 107.174 234.88C104.414 233.96 102.924 231.05 101.734 228.39C99.9578 224.739 98.5185 220.933 97.4341 217.02C96.8241 214.53 96.4941 212.02 95.7641 209.52C95.3241 208.03 94.7641 206.59 94.1441 205.16C91.8841 199.57 89.7241 193.93 88.0141 188.16C87.1595 185.64 86.704 183.001 86.6641 180.34C86.683 178.598 87.1112 176.886 87.9141 175.34C88.9941 173.35 89.4241 173.15 89.3641 170.82Z" fill="#F2F2F2"/>
<path d="M61.0339 166.46C62.5939 167.06 64.0339 168.05 65.6239 168.46C67.2139 168.87 69.2938 168.34 69.9038 166.79C70.9738 166.89 70.9038 168.65 71.7638 169.26C72.2343 169.472 72.739 169.597 73.2539 169.63C75.3439 170.11 75.7938 172.95 77.4738 174.28C78.0038 174.69 78.6739 174.98 78.9939 175.57C79.5239 176.57 78.8039 177.74 77.8939 178.36C76.9127 178.852 75.9641 179.407 75.0539 180.02C74.4835 180.604 74.0733 181.324 73.8631 182.113C73.6528 182.901 73.6497 183.73 73.8539 184.52C74.3736 186.084 75.1997 187.529 76.2839 188.77C77.5139 190.5 80.0539 189.77 81.8839 190.87C86.2739 193.5 90.2638 193.05 95.1838 193.05C99.0838 193.05 105.874 188.38 109.354 186.62C112.234 185.15 111.624 184.62 114.154 182.62C116.694 180.52 119.059 178.215 121.224 175.73C124.084 172.63 127.004 169.41 128.394 165.43C128.601 164.603 128.965 163.822 129.464 163.13C129.996 162.617 130.67 162.273 131.398 162.143C132.126 162.013 132.877 162.103 133.554 162.4C134.897 163.018 136.094 163.914 137.064 165.03C139.064 167.03 141.114 169.58 140.454 172.31C139.908 173.898 138.907 175.289 137.574 176.31C136.104 177.68 132.794 176.13 131.104 177.22C128.938 178.769 126.862 180.438 124.884 182.22C121.714 184.83 122.664 186.7 114.354 191.36C105.264 196.46 103.744 199.83 96.0039 206.81C95.2039 207.53 93.7539 210.48 94.2539 211.43C94.5156 211.807 94.857 212.121 95.2539 212.35C98.2539 214.55 98.4939 219.42 96.2539 222.45C94.0139 225.48 90.0439 226.82 86.2539 226.79C84.8182 226.818 83.391 226.564 82.0539 226.04C80.1972 225.105 78.5451 223.81 77.1938 222.23C75.1938 220.23 73.1938 218.1 72.3738 215.42C71.9797 213.845 71.8014 212.223 71.8439 210.6L71.5138 199.82C71.584 198.271 71.293 196.727 70.6639 195.31C69.3039 192.84 66.2039 192 63.4239 191.54C60.6439 191.08 57.5639 190.6 55.7739 188.43C54.3539 186.7 54.1039 184.32 53.9239 182.09C53.5539 177.6 52.7039 163.25 61.0339 166.46Z" fill="#FFDACE"/>
<path d="M109.944 246.31C112.008 247.477 114.01 248.749 115.944 250.12C119.944 252.67 124.684 254.99 126.014 259.5C127.014 263.08 125.514 266.84 124.094 270.29C117.684 285.9 113.354 302.36 105.854 317.47C105.494 318.21 105.034 319.02 104.234 319.22C102.914 319.57 101.894 318.06 101.464 316.76C100.574 314.03 100.294 310.95 101.554 308.38C102.124 307.21 102.984 306.21 103.664 305.09C105.224 302.53 105.754 299.48 106.184 296.5C106.654 293.24 107.044 289.96 107.354 286.68C107.83 283.242 107.769 279.75 107.174 276.33C106.396 273.333 105.24 270.446 103.734 267.74C103.125 266.331 102.272 265.042 101.214 263.93C100.004 262.926 98.6074 262.171 97.104 261.71C93.2372 260.281 89.2696 259.142 85.234 258.3C83.5756 258.049 81.958 257.579 80.424 256.9C79.6622 256.549 78.9905 256.029 78.4602 255.379C77.9299 254.729 77.555 253.967 77.364 253.15C77.2361 251.813 77.5224 250.469 78.184 249.3C80.184 245 86.794 237.53 92.324 239.12C94.774 239.82 97.614 239.78 100.134 240.61C103.704 241.79 106.534 244.6 109.944 246.31Z" fill="#FFDACE"/>
<path d="M21.484 294.88C16.344 299.6 11.194 304.37 5.99397 309.06C4.20397 310.67 2.27397 312.61 2.35397 315.06C2.34645 315.625 2.55376 316.172 2.93397 316.59C3.23217 316.853 3.59434 317.032 3.98397 317.11C4.985 317.297 6.01516 317.259 6.99945 316.997C7.98375 316.736 8.89742 316.259 9.67397 315.6C11.2248 314.285 12.5995 312.776 13.764 311.11C18.035 305.479 23.1922 300.578 29.034 296.6C32.144 294.55 35.474 292.86 38.494 290.68C41.6197 288.616 44.0902 285.702 45.614 282.28C45.7844 281.929 45.8404 281.534 45.774 281.15C45.554 280.31 44.454 280.15 43.594 280.15C38.6377 280.356 33.8694 282.104 29.954 285.15C28.554 286.29 27.954 287.59 27.004 289.04C25.3991 291.196 23.5464 293.156 21.484 294.88V294.88Z" fill="#FFDACE"/>
<path d="M100.064 157.94C100.334 156.671 100.729 155.432 101.244 154.24C102.301 150.756 102.027 147.003 100.475 143.709C98.9229 140.415 96.2037 137.814 92.8439 136.41C91.2583 135.775 89.5455 135.521 87.8439 135.67C84.5539 136.01 81.7539 138.09 78.8439 139.67C77.6154 140.323 76.3422 140.888 75.0339 141.36C73.9841 141.846 72.8043 141.976 71.6739 141.73C71.3962 141.661 71.1367 141.533 70.9128 141.355C70.6889 141.177 70.5058 140.953 70.3759 140.698C70.2461 140.443 70.1724 140.163 70.16 139.877C70.1476 139.591 70.1966 139.306 70.3039 139.04C69.5569 139.701 69.0248 140.571 68.7759 141.537C68.5269 142.503 68.5726 143.521 68.907 144.461C69.2414 145.4 69.8493 146.219 70.6524 146.81C71.4555 147.402 72.4172 147.74 73.4139 147.78C76.4839 147.91 78.9739 145.3 81.9639 144.55C82.5082 144.36 83.0934 144.318 83.6592 144.429C84.2251 144.54 84.7513 144.799 85.1839 145.18C85.7378 145.999 85.9791 146.989 85.8639 147.97V154.58C85.8288 154.978 85.8977 155.378 86.0639 155.74C86.5939 156.68 88.1439 156.38 88.7339 155.48C89.2075 154.51 89.3716 153.417 89.2039 152.35C89.1249 151.825 89.1515 151.289 89.282 150.774C89.4125 150.259 89.6443 149.775 89.9639 149.35C90.5138 148.908 91.2074 148.684 91.912 148.721C92.6167 148.758 93.2831 149.053 93.7839 149.55C94.7521 150.589 95.4012 151.883 95.6539 153.28C95.8945 154.675 96.3966 156.012 97.1339 157.22C98.0239 158.46 99.3039 159.4 100.234 160.61C100.059 159.732 100.002 158.834 100.064 157.94V157.94Z" fill="#374785"/>
<path d="M53.0639 167.89C47.3839 172.14 41.6939 176.79 38.4639 183.11C37.1307 185.932 36.0628 188.871 35.2739 191.89C32.4139 201.59 29.5239 211.4 28.9039 221.49C28.7539 223.83 28.7539 226.29 30.0339 228.31C30.6448 229.301 31.582 230.047 32.6839 230.42C34.9639 231.15 36.5539 229.77 37.8439 228.34C41.5639 224.25 44.0339 219.2 46.4039 214.2C48.7739 209.2 51.1139 204.11 54.6539 199.86C57.3999 196.401 61.0935 193.816 65.2839 192.42C65.4192 192.375 65.5369 192.289 65.6203 192.173C65.7037 192.057 65.7486 191.918 65.7486 191.775C65.7486 191.633 65.7037 191.494 65.6203 191.378C65.5369 191.262 65.4192 191.176 65.2839 191.13C62.4973 190.207 60.0909 188.394 58.4339 185.97C59.6373 185.263 60.6038 184.215 61.2108 182.958C61.8179 181.701 62.0382 180.293 61.8439 178.91C61.4739 176.62 60.0039 174.69 58.7939 172.71C57.4439 170.46 57.2939 168.52 57.1039 166.06C55.5639 165.99 54.2239 167.03 53.0639 167.89Z" fill="#374785"/>
<path d="M76.7039 186.84C76.3239 187.18 75.8939 187.61 75.9439 188.12C76.0344 188.523 76.2692 188.879 76.6039 189.12L78.8439 191.2C79.6939 192.096 80.7138 192.813 81.8439 193.31C82.781 193.587 83.7578 193.706 84.7339 193.66C88.3426 193.669 91.9476 193.432 95.5239 192.95C93.849 189.628 92.5477 186.13 91.6439 182.52C91.0739 180.22 91.2339 173.73 89.6439 172.34C85.0739 176.73 81.5739 182.44 76.7039 186.84Z" fill="#374785"/>
<path d="M70.164 204.741L67.934 210.801C66.264 215.341 64.564 220.081 65.094 224.891C65.112 225.375 65.2531 225.846 65.504 226.261C65.8068 226.584 66.1795 226.834 66.5937 226.992C67.0079 227.15 67.4527 227.211 67.894 227.171C72.004 227.291 75.964 225.741 79.784 224.171C80.6585 223.929 81.4155 223.378 81.914 222.621C82.544 221.321 81.504 219.861 80.534 218.791C79.2577 217.229 77.7423 215.879 76.044 214.791C75.1506 214.402 74.3238 213.876 73.594 213.231C72.594 212.111 72.484 210.431 72.404 208.911C72.2562 206.178 71.9221 203.458 71.404 200.771C71.0769 202.119 70.6627 203.445 70.164 204.741Z" fill="#374785"/>
<path d="M105.534 183.431C105.474 184.591 105.464 185.951 106.384 186.661C107.514 187.541 109.144 186.801 110.384 186.031C116.672 181.986 122.556 177.344 127.954 172.171C128.52 171.719 128.941 171.11 129.164 170.421C129.444 169.041 128.164 167.891 126.994 167.111C125.407 165.919 123.609 165.04 121.694 164.521C119.729 164.217 117.726 164.255 115.774 164.631L108.034 165.631C105.184 166.021 104.694 165.781 104.914 168.631C105.413 173.547 105.62 178.489 105.534 183.431Z" fill="#374785"/>
<path d="M130.174 190.37C135.234 193.37 140.294 196.37 145.614 198.83C147.364 199.65 149.684 200.34 151.054 198.96C151.482 198.469 151.787 197.883 151.944 197.25C153.764 191.25 150.444 184.99 147.254 179.58L141.524 169.88C136.685 173.019 132.012 176.407 127.524 180.03C125.674 181.51 123.164 182.89 124.304 185.52C125.194 187.69 128.264 189.24 130.174 190.37Z" fill="#374785"/>
<path d="M106.994 198.46C106.844 196.52 108.674 195.06 110.304 194L120.844 187.07C121.083 186.892 121.355 186.763 121.644 186.69C122.644 186.53 123.284 187.81 123.424 188.83C124.204 194.27 121.934 199.83 122.814 205.25C123.324 208.39 124.814 211.25 126.384 214.06C127.034 215.396 127.861 216.637 128.844 217.75C129.771 218.631 130.775 219.428 131.844 220.13C134.333 222.036 136.673 224.128 138.844 226.39C139.129 226.643 139.366 226.944 139.544 227.28C139.698 227.697 139.723 228.151 139.616 228.583C139.509 229.014 139.275 229.403 138.944 229.7C138.271 230.286 137.48 230.719 136.624 230.97C125.004 235.241 112.651 237.155 100.284 236.6C99.8405 236.615 99.4006 236.519 99.0038 236.32C98.6482 236.04 98.3723 235.671 98.2038 235.25C94.6538 228.17 95.4138 223.97 98.7138 216.78C99.4738 215.11 98.2238 208.99 100.044 209.2C101.864 209.41 102.874 211.52 103.464 213.31L108.354 228.05C109.935 227.862 111.491 227.499 112.994 226.97C112.454 224.85 111.144 222.97 110.564 220.89C110.232 219.44 110.054 217.958 110.034 216.47C109.824 213.057 109.343 209.667 108.594 206.33C107.886 203.746 107.352 201.116 106.994 198.46V198.46Z" fill="#374785"/>
<path d="M131.054 237.901C124.044 248.353 117.586 259.164 111.704 270.291C111.06 271.26 110.713 272.397 110.704 273.56C110.915 274.68 111.467 275.707 112.284 276.5C114.444 278.98 116.984 281.111 118.914 283.771C120.594 286.071 121.754 288.711 123.364 291.051C124.974 293.391 126.954 295.351 128.744 297.491C132.315 301.769 135.077 306.662 136.894 311.93C137.444 313.51 137.824 315.471 136.684 316.701C135.84 317.411 134.786 317.822 133.684 317.87C130.526 318.477 127.304 318.682 124.094 318.481C123.449 318.463 122.822 318.265 122.284 317.91C121.82 317.47 121.446 316.944 121.184 316.361C120.054 314.361 118.184 312.961 116.584 311.421C113.762 308.883 111.477 305.806 109.864 302.37C108.814 300.01 108.184 297.48 107.014 295.19C106.033 293.4 104.895 291.7 103.614 290.111L93.3339 276.601C92.5769 275.752 92.0622 274.716 91.8439 273.601C91.6239 271.471 93.5239 269.801 94.7839 268.071C96.2439 266.071 96.9539 263.641 97.7839 261.331C101.104 252.571 107.014 244.95 110.124 236.11C110.378 235.201 110.78 234.34 111.314 233.561C112.265 232.574 113.458 231.854 114.774 231.47C117.873 230.144 121.109 229.165 124.424 228.551C126.874 228.191 131.944 227.851 133.864 229.901C135.784 231.951 132.284 236.061 131.054 237.901Z" fill="#374785"/>
<path d="M114.984 321.51C114.436 321.568 113.903 321.727 113.414 321.98C113.172 322.115 112.983 322.328 112.88 322.585C112.776 322.841 112.763 323.126 112.844 323.39C116.534 324.05 120.314 323.39 124.004 322.72C125.914 322.38 128.004 321.96 129.304 320.55C129.594 321.42 130.804 321.42 131.704 321.26L135.634 320.54C136.154 319.16 135.634 317.63 135.014 316.28C134.901 315.883 134.662 315.532 134.334 315.28C134.023 315.132 133.678 315.066 133.334 315.09C130.434 315.09 124.644 313.98 122.594 316.01C120.544 318.04 118.544 321.51 114.984 321.51Z" fill="#374785"/>
<path d="M70.374 271.8C69.374 273.85 68.374 275.96 67.374 277.97C66.374 279.98 64.954 281.97 63.664 283.97C58.324 291.97 52.964 300.05 47.164 307.77C46.6986 308.251 46.434 308.891 46.424 309.56C46.484 310.04 46.804 310.48 46.744 310.96C46.5925 311.412 46.2692 311.786 45.844 312C43.1343 313.89 40.1351 315.325 36.964 316.25C36.3731 316.365 35.818 316.619 35.344 316.99C35.117 317.183 34.9684 317.452 34.926 317.747C34.8836 318.041 34.9505 318.341 35.114 318.59C35.3274 318.769 35.5799 318.894 35.851 318.957C36.122 319.019 36.404 319.017 36.674 318.95L50.484 317.67C51.674 317.56 53.154 317.22 53.424 316.04C54.3801 316.769 55.5056 317.243 56.6949 317.418C57.8843 317.593 59.0986 317.463 60.224 317.04C60.954 316.75 61.754 316.04 61.394 315.3C62.0057 315.473 62.6527 315.476 63.2658 315.308C63.8789 315.141 64.4348 314.81 64.874 314.35C65.7289 313.425 66.4068 312.35 66.874 311.18L77.774 288.4C78.9409 285.685 80.4245 283.117 82.194 280.75C83.673 279.007 85.3511 277.443 87.194 276.09C89.4045 274.382 91.7189 272.812 94.124 271.39C95.4538 270.712 96.6795 269.846 97.764 268.82C98.6438 267.79 99.3867 266.651 99.974 265.43C102.557 260.757 105.711 256.424 109.364 252.53C107.474 252.694 105.667 253.379 104.143 254.509C102.62 255.639 101.439 257.169 100.734 258.93C100.614 259.393 100.36 259.811 100.004 260.13C99.6646 260.316 99.2801 260.402 98.894 260.38C95.354 260.44 92.014 259.14 88.734 257.96C86.234 257.07 81.614 254.85 79.044 256.41C77.314 257.41 76.974 260.62 75.974 262.29C74.054 265.44 72.034 268.49 70.374 271.8Z" fill="#374785"/>
<path d="M94.354 235.27C93.644 236.11 92.904 237.16 93.184 238.27C93.5102 239.074 94.1181 239.732 94.894 240.12L106.564 247.9C107.182 248.384 107.899 248.725 108.664 248.9C109.221 248.953 109.782 248.875 110.303 248.672C110.824 248.469 111.29 248.146 111.664 247.73C112.395 246.909 112.992 245.977 113.434 244.97L115.524 240.79C116.344 239.16 117.164 237.2 116.284 235.6C115.739 234.767 114.944 234.126 114.014 233.77C110.624 232.21 106.854 232.13 103.224 231.62C101.754 231.42 99.714 230.56 98.414 231.15C96.914 231.76 95.374 234.08 94.354 235.27Z" fill="#374785"/>
<path d="M93.924 206.86C92.9694 207.479 92.1441 208.277 91.494 209.21C90.8068 210.675 90.5468 212.304 90.744 213.91C91.0875 213.541 91.5073 213.252 91.974 213.062C92.4408 212.872 92.9434 212.785 93.4469 212.809C93.9504 212.833 94.4426 212.966 94.8894 213.2C95.3361 213.433 95.7267 213.761 96.034 214.16C97.244 215.94 96.414 218.5 94.824 219.94C93.234 221.38 91.084 222.01 89.044 222.68C84.1682 224.41 79.3939 226.413 74.744 228.68C72.4904 229.652 70.3284 230.823 68.284 232.18C65.1422 234.424 62.7122 237.524 61.284 241.11C60.444 243.25 59.974 245.52 59.344 247.73C57.4195 254.378 53.9676 260.484 49.264 265.56C48.6405 266.143 48.1288 266.834 47.754 267.6C47.5694 267.99 47.5041 268.426 47.5664 268.853C47.6286 269.28 47.8157 269.679 48.104 270C48.5354 270.36 49.0823 270.552 49.644 270.54C52.154 270.65 54.254 268.72 55.904 266.82C60.574 261.46 64.204 255.28 68.744 249.82C70.3433 247.659 72.3898 245.869 74.744 244.57C77.594 243.21 80.854 243.14 83.934 242.45C87.1226 241.61 90.2107 240.427 93.144 238.92C94.9337 238.227 96.561 237.172 97.924 235.82C98.831 234.681 99.5316 233.391 99.994 232.01C101.937 226.937 103.133 221.608 103.544 216.19C103.678 215.052 103.621 213.899 103.374 212.78C103.032 211.795 102.634 210.831 102.184 209.89C101.683 208.503 101.442 207.035 101.474 205.56C101.474 204.24 101.974 202.65 101.764 201.39C100.624 201.3 98.854 203.22 97.954 203.88L93.924 206.86Z" fill="#F76C6C"/>
<path d="M54.8441 256.66C51.7341 260.66 47.8441 263.86 43.9041 267.06L12.6741 292.66L42.1841 284.88C44.9241 284.16 47.6641 283.44 50.3241 282.45C55.7141 280.45 60.6441 277.45 65.5341 274.39C71.1241 270.94 76.8141 267.39 81.0841 262.39C83.4308 259.474 85.5188 256.359 87.3241 253.08L96.3241 237.81C97.3241 236.07 98.3241 233.62 96.7941 232.26C95.4441 231.04 93.3141 231.86 91.7241 232.75C88.2041 234.75 84.7641 236.857 81.4041 239.07C78.3667 241.275 75.137 243.203 71.7541 244.83C69.7508 245.727 67.611 246.282 65.4241 246.47C64.1341 246.57 61.9241 245.91 60.7541 246.58C59.5841 247.25 58.9441 250.02 58.2841 251.31C57.3024 253.194 56.151 254.985 54.8441 256.66Z" fill="#F76C6C"/>
<path d="M84.214 198.5C84.4982 198.589 84.7976 198.62 85.094 198.59C85.3745 198.519 85.6368 198.39 85.864 198.21L88.094 196.7C86.594 197.001 85.0782 197.218 83.554 197.35C82.214 197.44 73.144 196.51 73.074 197.84C74.874 197.98 76.784 197.58 78.624 197.68C80.5084 197.782 82.3796 198.057 84.214 198.5V198.5Z" fill="#F76C6C"/>
<path d="M90.0341 175.6C90.7841 176.02 90.8141 177.06 90.8241 177.92C90.8341 178.78 91.1541 179.87 92.0141 179.92C92.8741 179.97 93.4041 178.92 93.9041 178.18C94.3448 177.606 94.8973 177.128 95.5281 176.774C96.1589 176.42 96.8549 176.198 97.5741 176.12C99.0105 175.975 100.458 175.975 101.894 176.12C102.364 176.12 102.974 176.07 103.104 175.61C103.234 175.15 102.774 174.8 102.394 174.56C102.046 174.398 101.739 174.159 101.497 173.861C101.254 173.563 101.082 173.214 100.994 172.84C101.036 172.248 101.214 171.673 101.514 171.16C101.662 170.902 101.723 170.602 101.687 170.307C101.651 170.011 101.52 169.735 101.314 169.52C101.115 169.405 100.884 169.354 100.655 169.376C100.426 169.397 100.209 169.49 100.034 169.64C99.6899 169.946 99.4139 170.321 99.2241 170.74C97.9441 173.07 95.7741 175.64 92.8141 174.42C91.9141 174.05 91.3341 173.3 90.2841 173.42C89.7241 173.48 89.0141 173.75 88.9041 174.42C88.7541 175.19 89.4641 175.23 90.0341 175.6Z" fill="#F76C6C"/>
<path d="M64.677 59.3325V62.0278C63.3619 60.9276 62.0012 60.3774 60.595 60.3774C59.0455 60.3774 57.7402 60.9341 56.679 62.0474C55.6112 63.1541 55.0774 64.5083 55.0774 66.1099C55.0774 67.6919 55.6112 69.0265 56.679 70.1138C57.7467 71.201 59.0553 71.7446 60.6047 71.7446C61.4055 71.7446 62.0859 71.6144 62.6458 71.354C62.9583 71.2238 63.2805 71.048 63.6125 70.8267C63.9511 70.6053 64.3059 70.3384 64.677 70.0259V72.77C63.3749 73.5057 62.0077 73.8735 60.5754 73.8735C58.4205 73.8735 56.5813 73.1216 55.0579 71.6177C53.5409 70.1007 52.7825 68.2713 52.7825 66.1294C52.7825 64.2088 53.4172 62.4966 54.6868 60.9927C56.2493 59.1502 58.2708 58.229 60.7512 58.229C62.1054 58.229 63.414 58.5968 64.677 59.3325ZM66.6887 68.7759C66.6887 67.4022 67.1803 66.2336 68.1633 65.27C69.1464 64.3065 70.3443 63.8247 71.7571 63.8247C73.1764 63.8247 74.3808 64.3097 75.3704 65.2798C76.3469 66.2498 76.8352 67.4412 76.8352 68.854C76.8352 70.2798 76.3437 71.4744 75.3606 72.438C74.371 73.395 73.1568 73.8735 71.718 73.8735C70.2922 73.8735 69.0976 73.3853 68.134 72.4087C67.1705 71.4451 66.6887 70.2342 66.6887 68.7759ZM68.9348 68.8149C68.9348 69.7655 69.1887 70.5174 69.6965 71.0708C70.2174 71.6307 70.9042 71.9106 71.7571 71.9106C72.6165 71.9106 73.3033 71.634 73.8176 71.0806C74.3319 70.5272 74.5891 69.7882 74.5891 68.8638C74.5891 67.9393 74.3319 67.2004 73.8176 66.647C73.2968 66.0871 72.6099 65.8071 71.7571 65.8071C70.9172 65.8071 70.2369 66.0871 69.7161 66.647C69.1952 67.2069 68.9348 67.9295 68.9348 68.8149ZM81.3665 64.0884V69.5474C81.3665 71.1229 81.9882 71.9106 83.2317 71.9106C84.4752 71.9106 85.0969 71.1229 85.0969 69.5474V64.0884H87.2942V69.5962C87.2942 70.3579 87.1998 71.0155 87.011 71.5688C86.8287 72.0636 86.5129 72.5096 86.0637 72.9067C85.3215 73.5513 84.3775 73.8735 83.2317 73.8735C82.0924 73.8735 81.1516 73.5513 80.4094 72.9067C79.9537 72.5096 79.6314 72.0636 79.4426 71.5688C79.2603 71.1261 79.1692 70.4686 79.1692 69.5962V64.0884H81.3665ZM92.2649 78.7759H90.0676V64.0884H92.2649V65.1235C93.1308 64.2576 94.1139 63.8247 95.2141 63.8247C96.5227 63.8247 97.6002 64.3065 98.4465 65.27C99.3059 66.2271 99.7356 67.4347 99.7356 68.8931C99.7356 70.3188 99.3092 71.507 98.4563 72.4575C97.6099 73.4015 96.5422 73.8735 95.2532 73.8735C94.1399 73.8735 93.1438 73.4276 92.2649 72.5356V78.7759ZM97.4895 68.9028C97.4895 67.9914 97.2421 67.2492 96.7473 66.6763C96.246 66.0968 95.6145 65.8071 94.8528 65.8071C94.0455 65.8071 93.3912 66.0871 92.8899 66.647C92.3886 67.2069 92.1379 67.9425 92.1379 68.854C92.1379 69.7459 92.3886 70.4816 92.8899 71.061C93.3847 71.6274 94.0357 71.9106 94.843 71.9106C95.6047 71.9106 96.233 71.6242 96.7278 71.0513C97.2356 70.4784 97.4895 69.7622 97.4895 68.9028ZM104.257 57.106V73.6001H102.06V57.106H104.257ZM115.702 69.3618H108.886C108.945 70.1431 109.198 70.7648 109.648 71.2271C110.097 71.6828 110.673 71.9106 111.376 71.9106C111.923 71.9106 112.376 71.7804 112.734 71.52C113.085 71.2596 113.486 70.7778 113.935 70.0747L115.79 71.1099C115.504 71.5981 115.201 72.0181 114.882 72.3696C114.563 72.7147 114.221 73.0011 113.857 73.229C113.492 73.4504 113.098 73.6131 112.675 73.7173C112.252 73.8215 111.793 73.8735 111.298 73.8735C109.879 73.8735 108.74 73.4178 107.88 72.5063C107.021 71.5884 106.591 70.3709 106.591 68.854C106.591 67.3501 107.008 66.1326 107.841 65.2017C108.681 64.2837 109.794 63.8247 111.181 63.8247C112.581 63.8247 113.687 64.2707 114.501 65.1626C115.309 66.048 115.712 67.2752 115.712 68.8442L115.702 69.3618ZM113.447 67.5649C113.141 66.3931 112.402 65.8071 111.23 65.8071C110.963 65.8071 110.712 65.8494 110.478 65.9341C110.243 66.0122 110.029 66.1294 109.833 66.2856C109.644 66.4354 109.482 66.6177 109.345 66.8325C109.208 67.0474 109.104 67.2915 109.032 67.5649H113.447Z" fill="#F2F2F2"/>
</svg>
