<svg width="163" height="363" viewBox="0 0 163 363" fill="none" xmlns="http://www.w3.org/2000/svg">
<path fill-rule="evenodd" clip-rule="evenodd" d="M0.843994 0.600098H162.844V362.729H0.843994V0.600098ZM135.769 165.959C138.995 166.925 142.233 167.895 144.68 170.127C149.58 174.628 149.6 182.62 146.958 188.311C145.852 190.672 143.83 192.205 141.882 193.682C140.066 195.059 138.314 196.388 137.43 198.291C134.843 203.884 138.789 209.096 142.758 214.339C145.779 218.329 148.813 222.338 148.993 226.546C149.238 232.31 145.309 236.727 141.305 241.229C138.033 244.907 134.711 248.642 133.573 253.216C131.911 259.947 135.242 266.126 138.642 272.432C140.961 276.733 143.312 281.093 144.133 285.729C146.279 297.798 137.764 309.13 128.581 317.273C114.998 329.283 98.9469 338.192 81.5503 343.378C73.835 345.669 65.6034 347.213 57.7363 345.487C49.8691 343.762 42.4374 338.121 40.6453 330.29C40.318 328.854 40.184 327.381 40.0499 325.907C39.9061 324.326 39.7622 322.744 39.3796 321.208C38.6446 318.289 37.1009 315.67 35.5547 313.047C34.1192 310.612 32.6817 308.173 31.8871 305.487C30.1962 299.736 31.6352 293.872 33.0882 287.951C33.9755 284.334 34.8682 280.697 35.0563 277.051C35.344 271.532 34.0134 266.128 32.682 260.721C31.3429 255.283 30.003 249.841 30.3076 244.275C30.9556 232.519 38.7823 222.499 46.8823 214.003C51.6714 208.977 57.1085 203.104 56.2479 196.222C55.5285 190.467 50.7322 186.407 45.9999 182.402C40.8749 178.064 35.825 173.789 36.1093 167.494C36.2814 163.669 38.5798 160.309 40.787 157.171L51.7423 141.621C53.4028 139.269 55.2556 136.767 57.6654 135.405C60.0751 134.042 62.9304 133.76 65.6945 133.497C80.6795 132.105 97.8819 131.449 108.392 142.196C110.504 144.354 112.2 146.847 113.902 149.349C115.127 151.151 116.357 152.958 117.747 154.648C121.706 159.376 126.873 162.949 132.702 164.991C133.706 165.341 134.737 165.65 135.769 165.959Z" fill="#24305E"/>
<path d="M144.68 170.127C141.45 167.181 136.843 166.434 132.702 164.991C126.873 162.949 121.706 159.376 117.747 154.648C114.426 150.612 112.027 145.909 108.392 142.196C97.8819 131.449 80.6795 132.105 65.6945 133.497C62.9304 133.76 60.0751 134.042 57.6654 135.405C55.2556 136.767 53.4028 139.269 51.7423 141.621L40.787 157.171C38.5798 160.309 36.2814 163.669 36.1093 167.494C35.5625 179.603 54.7494 184.234 56.2479 196.222C57.1085 203.104 51.6714 208.977 46.8823 214.003C38.7823 222.499 30.9556 232.519 30.3076 244.275C29.7001 255.375 35.6334 265.981 35.0563 277.051C34.5601 286.667 29.1635 296.223 31.8871 305.487C33.5375 311.067 37.9621 315.578 39.3796 321.208C40.1188 324.175 39.9669 327.313 40.6453 330.29C42.4374 338.121 49.8691 343.762 57.7363 345.487C65.6034 347.213 73.835 345.669 81.5503 343.378C98.9469 338.192 114.998 329.283 128.581 317.273C137.764 309.13 146.279 297.798 144.133 285.729C142.108 274.296 130.778 264.538 133.573 253.216C136.104 243.044 149.438 237.02 148.993 226.546C148.578 216.808 132.874 208.14 137.43 198.291C139.263 194.346 144.821 192.872 146.958 188.311C149.6 182.62 149.58 174.628 144.68 170.127Z" fill="#A8D0E6"/>
<path d="M114.052 117.554C112.711 116.827 111.304 116.229 109.85 115.768C108.946 115.378 107.968 115.192 106.984 115.223C106.153 115.401 105.34 115.654 104.554 115.979C104.158 116.137 103.728 116.197 103.303 116.153C102.878 116.109 102.47 115.963 102.114 115.727C101.79 115.455 101.395 115.041 101.102 115.283C101.013 115.352 100.943 115.442 100.899 115.546C100.716 115.799 100.591 116.089 100.533 116.396C100.475 116.703 100.486 117.019 100.565 117.322C100.707 117.572 100.915 117.78 101.166 117.92C101.418 118.061 101.704 118.13 101.993 118.119C102.56 118.119 103.127 117.988 103.704 117.957C104.461 117.95 105.211 118.099 105.908 118.394C106.605 118.69 107.233 119.125 107.754 119.673C108.772 120.766 109.637 121.991 110.326 123.316C109.48 122.524 108.385 122.049 107.227 121.973C107.083 121.949 106.934 121.956 106.793 121.995C106.651 122.033 106.52 122.101 106.407 122.195C106.063 122.579 106.407 123.205 106.701 123.558L108.432 125.717C108.772 126.213 109.218 126.626 109.738 126.928C110.207 127.122 110.709 127.221 111.217 127.221C113.337 127.472 115.482 127.414 117.585 127.049C118.89 126.771 120.111 126.19 121.149 125.354C121.463 125.092 122.476 124.345 122.395 123.83C122.314 123.316 121.261 123.053 120.916 122.821C118.395 121.307 116.542 119.007 114.052 117.554Z" fill="#FFDACE"/>
<path d="M25.7616 203.427L23.5848 199.209C22.9975 198.059 22.39 196.737 22.8153 195.516C23.0481 194.83 23.605 194.073 23.2101 193.498C23.0773 193.321 22.8939 193.189 22.6842 193.119C22.4745 193.049 22.2484 193.044 22.0356 193.104C21.6095 193.231 21.2157 193.447 20.8814 193.74C19.9904 194.406 19.1095 195.092 18.259 195.758L17.5401 193.74C17.4288 193.417 17.2263 193.023 16.8719 193.033C16.5175 193.043 16.3656 193.477 16.2948 193.82C15.366 198.415 16.0825 203.189 18.3198 207.312C18.6873 208.042 19.1503 208.721 19.6968 209.33C20.3081 209.937 20.9876 210.472 21.7218 210.925C22.9975 211.765 24.2935 212.573 25.6098 213.346C26.2124 213.789 26.9472 214.017 27.6955 213.992C30.1559 213.609 29.194 210.45 28.303 209.149C27.169 207.342 26.7438 205.334 25.7616 203.427Z" fill="#FFDACE"/>
<path d="M49.4441 329.977C48.9542 330.113 48.4987 330.35 48.1076 330.674C47.7375 331.09 47.4981 331.606 47.4191 332.157C46.8926 334.75 47.814 337.424 47.6115 340.068C47.3087 342.233 46.6231 344.328 45.5865 346.254C45.1896 347.418 44.4526 348.437 43.4703 349.18C42.4578 349.776 41.1922 349.806 40.3113 350.563C40.088 350.736 39.9337 350.983 39.876 351.259C39.7646 352.046 40.767 352.48 41.5567 352.571C43.7419 352.809 45.9528 352.547 48.0214 351.806C50.0899 351.065 51.9616 349.863 53.4941 348.292C56.157 345.527 57.615 341.784 60.2778 339.019C61.2004 338.256 61.9494 337.307 62.475 336.234C63.2242 334.104 61.6447 331.915 60.0753 330.29C58.8198 328.988 57.3821 327.263 55.4786 327.737C53.4256 328.368 51.4107 329.116 49.4441 329.977Z" fill="#FFDACE"/>
<path d="M99.2891 349.271C99.2949 349.708 99.3736 350.141 99.5219 350.553C99.7082 350.948 99.9857 351.294 100.332 351.562C102.357 353.197 105.141 353.166 107.713 353.065L115.125 352.753C115.259 352.761 115.391 352.722 115.499 352.642C115.546 352.585 115.579 352.518 115.597 352.446C115.614 352.375 115.616 352.3 115.6 352.228C115.348 351.092 114.742 350.064 113.869 349.291C112.258 347.502 110.824 345.563 109.586 343.499C109.336 343.01 108.992 342.574 108.574 342.218C107.865 341.801 107.044 341.614 106.225 341.683C104.544 341.683 100.241 340.724 99.2182 342.379C98.1956 344.034 99.0562 347.637 99.2891 349.271Z" fill="#FFDACE"/>
<path d="M92.4953 155.485C92.9299 155.986 93.4555 156.4 94.0444 156.706C94.9701 156.923 95.9335 156.923 96.8592 156.706C97.8008 156.636 98.9753 156.989 99.1575 157.917C99.2689 158.472 98.9753 159.047 99.0765 159.612C99.1465 159.904 99.2739 160.178 99.4512 160.42L100.464 162.115C101.117 163.009 101.601 164.014 101.891 165.082C102.026 165.609 102.015 166.164 101.86 166.686C101.705 167.208 101.411 167.679 101.01 168.048C100.16 168.735 98.8133 168.805 98.2665 169.754C98.0784 170.155 97.9849 170.593 97.9932 171.035C97.8919 172.761 97.9324 174.638 99.0057 176.081C99.603 176.888 100.484 177.463 101.091 178.26C101.434 178.632 101.637 179.111 101.664 179.616C101.692 180.12 101.543 180.618 101.243 181.025C100.835 181.357 100.339 181.563 99.8157 181.621C96.8142 182.236 93.7658 182.597 90.7032 182.7C89.1945 182.7 87.3113 182.509 86.7848 181.086C86.6488 180.499 86.5641 179.901 86.5317 179.3C86.1258 177.993 85.3139 176.848 84.213 176.03C81.7403 173.889 79.7199 171.279 78.2697 168.351C77.5543 166.882 77.1666 165.277 77.1334 163.645C77.1002 162.012 77.4222 160.392 78.0773 158.896C80.5377 153.699 88.1415 151.409 92.4953 155.485Z" fill="#FFDACE"/>
<path d="M70.1297 191.742C65.4519 197.08 61.5234 203.78 54.8004 206.091C52.248 206.84 49.604 207.234 46.9434 207.262L27.7059 208.271C26.7262 210.447 26.045 212.745 25.6809 215.102C32.0293 217.121 38.7118 217.898 45.3335 218.644C48.8534 219.208 52.4352 219.28 55.9749 218.856C60.3692 218.119 64.3483 215.889 68.1249 213.478C72.6651 210.557 76.9894 207.317 81.0647 203.78C81.3461 203.474 81.7254 203.274 82.1379 203.215C82.564 203.261 82.9594 203.458 83.2517 203.77C89.2893 208.999 93.9802 215.594 96.9305 223.004C97.3499 224.358 98.0386 225.614 98.9555 226.697C99.7282 227.409 100.619 227.983 101.588 228.392C107.147 231.107 113.424 233.649 116.29 239.109C118.76 232.045 121.231 224.981 122.496 217.645C123.762 210.309 123.762 202.6 121.342 195.546C120.805 193.992 120.147 192.388 120.4 190.753C120.629 189.704 121.04 188.704 121.615 187.796C127.463 177.105 131.542 165.544 133.694 153.558C133.871 152.866 133.871 152.141 133.694 151.449C133.308 150.605 132.623 149.933 131.771 149.562C129.794 148.52 127.575 148.022 125.341 148.119C124.8 148.107 124.265 148.228 123.782 148.472C123.127 148.898 122.623 149.52 122.344 150.248C118.477 158.533 116.624 168.311 109.678 174.274C106.752 176.797 92.0503 181.086 89.2355 179.996C86.4208 178.906 84.8818 180.299 82.6037 181.59C77.907 184.258 73.6908 187.689 70.1297 191.742Z" fill="#374785"/>
<path d="M101.801 182.478C101.74 181.106 102.064 179.643 101.436 178.442C100.626 176.858 96.3736 175.566 96.2521 178.24C96.1508 180.309 100.332 181.822 101.801 182.478Z" fill="#FFDACE"/>
<path d="M85.1653 242.106C84.2844 246.697 84.416 251.42 83.9604 256.072C83.201 263.852 80.8115 271.369 78.4423 278.827C77.9075 281.001 76.9663 283.055 75.668 284.881C73.9468 287 71.3446 288.231 69.3905 290.159C67.0314 292.49 65.7658 295.688 64.571 298.796L55.0535 323.509C54.5624 324.58 54.2774 325.734 54.2131 326.91C54.3389 328.349 54.8188 329.736 55.6104 330.946C56.9844 333.374 58.5414 335.695 60.2679 337.889C61.2804 339.11 62.7688 340.421 64.1559 339.715C63.761 332.006 67.9933 324.811 72.8128 318.766C77.6323 312.722 83.2516 307.132 86.5018 300.118C87.7168 304.548 85.7626 309.301 86.6334 313.802C87.1295 316.365 88.5065 318.655 89.6709 320.976C92.4369 326.32 94.3531 332.06 95.351 337.99C95.7054 340.088 96.0901 342.45 97.8316 343.671C98.7313 344.218 99.7476 344.546 100.798 344.629C104.864 345.193 109.003 344.901 112.948 343.772C109.351 339.999 106.757 335.388 105.405 330.361C104.392 326.016 103.873 321.572 103.856 317.111C103.596 312.089 103.63 307.055 103.957 302.036C104.636 293.731 106.782 285.628 108.919 277.565L116.634 248.463C117.373 245.688 118.112 242.792 117.535 239.977C116.958 237.161 114.953 234.548 112.938 232.307C109.425 228.382 101.548 219.603 95.8471 223.791C90.1468 227.978 86.4714 235.385 85.1653 242.106Z" fill="#374785"/>
<path d="M122.344 145.536C122 144.063 121.331 142.69 120.926 141.227C120.541 139.209 120.267 137.17 120.106 135.122C119.669 132.263 118.6 129.537 116.978 127.14C116.756 126.887 116.644 126.557 116.664 126.222C116.764 125.948 116.962 125.722 117.221 125.586L121.443 122.64C121.837 122.279 122.355 122.084 122.891 122.095C123.903 122.246 124.095 123.507 124.217 124.476C124.835 129.713 128.642 133.962 130.677 138.825C131.349 140.517 131.914 142.249 132.368 144.012C133.066 146.515 133.765 149.118 133.279 151.661C132.869 153.41 132.089 155.051 130.991 156.474C130.481 157.294 129.788 157.984 128.966 158.493C125.796 160.178 124.47 155.546 123.417 153.447C122.131 150.874 123.042 148.21 122.344 145.536Z" fill="#374785"/>
<path d="M87.9189 154.668C88.4482 154.39 88.9011 153.987 89.2382 153.495C89.5753 153.002 89.7863 152.435 89.8528 151.843C89.8336 151.177 89.623 150.532 89.246 149.983C88.8691 149.433 88.3416 149.004 87.7266 148.745C86.488 148.246 85.1332 148.106 83.8183 148.341C79.9101 148.87 76.3566 150.88 73.8958 153.952C72.063 156.309 70.9738 159.156 70.7665 162.131C70.5592 165.106 71.2431 168.075 72.7314 170.662C73.6404 172.259 74.9665 173.581 76.5688 174.487C79.2013 175.899 82.6438 175.849 84.7802 177.907L85.6509 173.871C85.9407 172.981 85.9473 172.023 85.67 171.129C85.3927 170.235 84.845 169.448 84.1018 168.876C83.2042 168.032 82.5533 166.962 82.2186 165.778C82.0161 164.567 82.8058 163.104 84.0309 163.094C85.2561 163.084 86.2584 164.456 87.4836 164.254C88.7087 164.053 89.0631 162.61 88.6378 161.57C88.1049 160.575 87.2873 159.76 86.2888 159.229C81.7528 156.283 85.2459 156.232 87.9189 154.668Z" fill="#374785"/>
<path d="M71.8245 64.7681L69.9788 65.8618C69.6337 65.2629 69.3049 64.8722 68.9924 64.6899C68.6669 64.4816 68.247 64.3774 67.7327 64.3774C67.1012 64.3774 66.5771 64.5565 66.1604 64.9146C65.7437 65.2661 65.5354 65.7088 65.5354 66.2427C65.5354 66.9784 66.0823 67.5708 67.176 68.02L68.6799 68.6353C69.9039 69.13 70.7991 69.7355 71.3655 70.4517C71.9319 71.1613 72.2151 72.0337 72.2151 73.0688C72.2151 74.4556 71.7528 75.6014 70.8284 76.5063C69.8974 77.4178 68.7418 77.8735 67.3616 77.8735C66.053 77.8735 64.9722 77.4862 64.1194 76.7114C63.2795 75.9367 62.7555 74.8462 62.5471 73.4399L64.8518 72.9321C64.956 73.8175 65.1383 74.4295 65.3987 74.7681C65.8674 75.4191 66.551 75.7446 67.4495 75.7446C68.1591 75.7446 68.7483 75.507 69.217 75.0317C69.6858 74.5565 69.9202 73.9543 69.9202 73.2251C69.9202 72.9321 69.8778 72.6652 69.7932 72.4243C69.7151 72.1769 69.5881 71.9523 69.4124 71.7505C69.2431 71.5422 69.0217 71.3501 68.7483 71.1743C68.4749 70.992 68.1493 70.8195 67.7717 70.6567L66.3167 70.0513C64.2528 69.1789 63.2209 67.9028 63.2209 66.2231C63.2209 65.0903 63.6539 64.1431 64.5198 63.3813C65.3857 62.6131 66.4631 62.229 67.7522 62.229C69.4905 62.229 70.8479 63.0754 71.8245 64.7681ZM74.0901 72.7759C74.0901 71.4022 74.5816 70.2336 75.5647 69.27C76.5478 68.3065 77.7457 67.8247 79.1584 67.8247C80.5777 67.8247 81.7821 68.3097 82.7717 69.2798C83.7483 70.2498 84.2366 71.4412 84.2366 72.854C84.2366 74.2798 83.745 75.4744 82.762 76.438C81.7724 77.395 80.5582 77.8735 79.1194 77.8735C77.6936 77.8735 76.4989 77.3853 75.5354 76.4087C74.5719 75.4451 74.0901 74.2342 74.0901 72.7759ZM76.3362 72.8149C76.3362 73.7655 76.5901 74.5174 77.0979 75.0708C77.6187 75.6307 78.3056 75.9106 79.1584 75.9106C80.0178 75.9106 80.7047 75.634 81.219 75.0806C81.7333 74.5272 81.9905 73.7882 81.9905 72.8638C81.9905 71.9393 81.7333 71.2004 81.219 70.647C80.6982 70.0871 80.0113 69.8071 79.1584 69.8071C78.3186 69.8071 77.6383 70.0871 77.1174 70.647C76.5966 71.2069 76.3362 71.9295 76.3362 72.8149ZM88.7678 61.106V77.6001H86.5706V61.106H88.7678ZM91.1018 72.7759C91.1018 71.4022 91.5933 70.2336 92.5764 69.27C93.5595 68.3065 94.7574 67.8247 96.1702 67.8247C97.5894 67.8247 98.7939 68.3097 99.7834 69.2798C100.76 70.2498 101.248 71.4412 101.248 72.854C101.248 74.2798 100.757 75.4744 99.7737 76.438C98.7841 77.395 97.5699 77.8735 96.1311 77.8735C94.7053 77.8735 93.5107 77.3853 92.5471 76.4087C91.5836 75.4451 91.1018 74.2342 91.1018 72.7759ZM93.3479 72.8149C93.3479 73.7655 93.6018 74.5174 94.1096 75.0708C94.6305 75.6307 95.3173 75.9106 96.1702 75.9106C97.0295 75.9106 97.7164 75.634 98.2307 75.0806C98.745 74.5272 99.0022 73.7882 99.0022 72.8638C99.0022 71.9393 98.745 71.2004 98.2307 70.647C97.7099 70.0871 97.023 69.8071 96.1702 69.8071C95.3303 69.8071 94.65 70.0871 94.1292 70.647C93.6083 71.2069 93.3479 71.9295 93.3479 72.8149Z" fill="#F2F2F2"/>
</svg>
