<svg width="297" height="251" viewBox="0 0 297 251" fill="none" xmlns="http://www.w3.org/2000/svg">
<g clip-path="url(#clip0)">
<path d="M293.568 77.3749C289.873 70.8628 282.854 66.4905 279.593 59.7614C274.251 48.7529 280.369 34.6125 274.003 24.1002C268.257 14.5803 255.182 12.5646 243.816 11.5103C233.722 10.58 223.598 9.68073 213.505 8.75044C207.324 8.19227 195.212 4.59514 189.746 7.6651C179.529 13.4639 182.355 31.9767 168.193 34.5505C162.634 35.6358 156.951 32.907 152.758 29.1858C148.565 25.4957 145.367 20.8752 141.36 16.999C130.304 6.3627 114.03 2.48649 98.409 1.15307C79.2782 -0.490442 57.1038 2.5175 46.4203 17.9293C42.6314 23.387 40.768 29.806 38.2214 35.8839C33.1281 47.9777 25.1776 58.9241 15.1464 67.6378C8.15866 73.7157 -0.661402 80.7239 0.922482 89.6547C2.38214 97.8102 11.637 101.841 18.9042 106.214C30.0535 112.912 39.2152 125.626 35.3642 137.751C33.0971 144.852 26.9168 150.031 22.3826 156.046C18.5315 161.132 15.7365 167.21 15.6433 173.505C15.5501 179.8 18.5005 186.343 24.0286 189.692C28.3144 192.297 33.625 192.762 38.6873 192.979C48.2527 193.413 57.8491 193.289 67.3835 192.576C76.6073 191.894 86.6386 190.839 94.4338 195.646C105.117 202.251 106.67 216.391 112.353 227.338C120.459 242.935 139.279 252.642 157.199 250.502C179.001 247.928 195.616 230.439 216.3 223.368C225.523 220.205 235.462 219.182 244.592 215.771C253.723 212.36 262.512 205.693 264.251 196.39C266.394 184.885 257.263 173.629 258.909 162.062C260.369 151.798 269.686 144.604 276.829 136.913C286.456 126.556 293.071 113.594 295.711 99.9189C297.233 92.2905 297.388 84.104 293.568 77.3749ZM183.007 118.308C182.2 123.548 177.417 127.114 173.721 130.898C170.025 134.681 167.044 140.821 170.243 145.069C172.945 148.666 178.877 149.038 180.771 153.1C182.386 156.543 179.901 160.357 176.982 162.093C172.23 164.884 171.827 162.465 168.317 160.729C158.876 156.108 149.683 152.139 139.217 149.844C134.652 148.821 129.9 148.046 125.894 145.627C121.888 143.208 118.72 138.681 119.527 134.061C119.993 131.332 121.764 129.006 123.472 126.804C126.888 122.432 130.553 117.842 135.708 115.827C141.112 113.718 147.292 114.804 152.51 117.346C154.746 118.432 156.888 119.796 159.311 120.416C163.783 121.564 168.876 119.703 171.609 115.982C172.945 114.121 173.907 111.765 176.019 110.834C177.914 109.997 180.305 110.772 181.641 112.354C182.945 114.028 183.349 116.261 183.007 118.308Z" fill="#FFB400"/>
<path d="M219.716 160.202C216.02 163.644 211.331 165.876 207.666 169.38C204.56 172.326 202.324 176.017 199.902 179.521C195.088 186.436 189.436 192.731 183.752 198.995C183.007 199.801 182.231 200.638 181.206 201.041C179.715 201.6 178.038 201.103 176.423 201.103C174.808 201.103 172.882 202.158 173.1 203.77C172.945 202.22 172.758 200.607 172.013 199.243C171.268 197.878 169.839 196.762 168.255 196.886C167.137 196.979 166.174 197.661 165.212 198.282C161.578 200.669 157.416 202.344 154.435 205.507C151.453 208.67 150.118 214.034 153.037 217.228C153.752 218.004 154.652 218.593 155.553 219.151C163.1 223.958 170.646 228.795 178.224 233.602C179.187 234.222 180.181 234.842 181.299 234.935C182.417 235.028 183.69 234.408 183.908 233.291C184.063 232.516 183.69 231.741 183.318 231.059C178.845 222.779 172.417 214.624 173.007 205.259C177.541 206.22 182.479 207.088 186.578 204.98C188.815 203.832 190.523 201.91 192.169 200.049C200.709 190.529 209.653 181.381 218.97 172.637C229.436 162.806 240.958 152.542 244.219 138.557C244.654 136.727 244.903 134.836 244.437 133.006C243.94 131.208 242.573 129.533 240.71 129.223C238.381 128.82 234.002 130.711 232.201 132.324C229.996 134.309 230.12 137.72 229.53 140.417C228.07 147.705 225.275 155.023 219.716 160.202Z" fill="#FFDACE"/>
<path d="M183.908 217.105C185.647 215.244 187.075 213.135 188.628 211.12C193.784 204.608 200.492 199.553 207.138 194.561C216.486 187.521 225.865 180.513 235.648 174.094C238.381 172.296 241.176 170.528 243.381 168.14C245.307 166.063 246.735 163.582 248.164 161.132C251.891 154.651 255.648 148.108 257.729 140.945C258.723 137.534 259.313 133.906 258.661 130.433C258.319 128.572 257.419 126.618 255.679 125.905C254.779 125.533 253.785 125.564 252.822 125.564C250.866 125.595 248.878 125.657 246.921 125.688C245.213 125.719 243.35 125.812 242.015 126.898C241.021 127.704 240.493 128.913 240.027 130.061C236.083 139.487 232.573 149.193 227.014 157.783C222.014 165.536 215.461 172.141 208.939 178.684C201.61 186.064 194.218 193.475 185.895 199.708C184.156 201.011 182.324 202.282 180.243 202.995C176.796 204.174 172.852 203.709 169.56 205.29C165.46 207.244 163.286 212.298 164.187 216.764C164.901 220.237 168.566 225.818 172.603 225.973C174.777 226.066 176.361 223.834 177.852 222.531C179.901 220.702 182.075 219.089 183.908 217.105Z" fill="#FFDACE"/>
<path d="M212.79 26.0226C214.623 24.5651 216.952 23.6038 219.281 23.8829C219.871 23.9449 220.523 24.1 221.082 23.8519C221.921 23.5108 222.2 22.4875 222.697 21.7432C223.194 20.999 224.468 20.5028 224.902 21.3091C224.996 21.4952 225.027 21.7432 225.089 21.9293C225.306 22.5805 226.051 22.9216 226.735 22.9526C227.418 22.9836 228.101 22.7666 228.753 22.6115C230.182 22.2704 231.673 22.2394 233.132 22.5185C233.878 22.6425 234.654 22.9216 235.089 23.5108C235.617 24.255 235.493 25.2473 235.493 26.1466C235.524 29.5887 237.915 32.5036 240.151 35.1084C242.108 37.3721 244.064 39.6358 246.052 41.8995C243.971 45.0625 239.685 45.6827 235.927 46.0238C233.847 46.2099 231.797 46.3959 229.716 46.582C225.399 46.9851 220.71 47.2642 217.076 44.9075C215.71 44.0082 214.623 42.7988 213.505 41.6204C212.2 40.194 210.834 38.6745 210.275 36.8139C209.995 35.8526 209.933 34.8603 209.685 33.899C209.498 33.1548 208.504 31.8834 208.473 31.2942C208.38 29.6817 211.579 26.9839 212.79 26.0226Z" fill="#FFDACE"/>
<path d="M223.35 38.6125C222.045 38.9536 220.399 38.4265 219.902 37.1551C219.374 35.7596 220.399 34.3022 221.455 33.2478C222.511 32.1935 223.691 30.9841 223.598 29.5267C221.735 29.3406 219.933 30.1159 218.163 30.643C216.362 31.1702 214.312 31.4803 212.759 30.426C211.486 29.5887 210.523 27.8832 209.033 28.0382C208.473 28.1002 207.977 28.4103 207.542 28.7825C205.865 30.1779 204.809 32.1625 204.126 34.2402C202.014 40.7212 203.473 47.7294 204.374 54.4895C205.647 64.1335 205.803 73.9325 204.778 83.6076C204.405 86.9876 203.97 90.5847 205.461 93.6547C206.113 94.9881 207.138 96.1355 208.225 97.1898C210.554 99.4845 213.411 101.531 216.672 101.562C219.374 101.593 221.859 100.26 224.219 98.9263C226.393 97.717 228.567 96.5076 230.741 95.2982C231.145 95.0811 231.517 94.8641 231.828 94.523C232.356 93.9648 232.511 93.1585 232.573 92.3833C232.729 90.3987 232.263 88.4141 231.704 86.4915C228.909 76.5994 224.064 67.1724 223.256 56.9392C223.101 55.1097 223.101 53.1871 223.846 51.4815C224.778 49.3419 226.735 47.8534 228.225 46.0548C229.716 44.2563 230.71 41.5894 229.437 39.6358C229.002 38.9536 227.387 37.1551 226.548 37.031C225.617 36.907 224.374 38.3644 223.35 38.6125Z" fill="#374785"/>
<path d="M51.2652 72.1336C48.7806 78.1185 47.9111 84.5995 47.1036 91.0185C44.8986 108.26 42.6936 125.656 43.9979 143.022C47.4142 142.091 50.8304 141.192 54.2466 140.262C55.6131 139.89 57.1038 139.549 58.3771 140.107C59.5262 140.603 60.2405 141.719 60.8927 142.805C68.4705 154.867 77.2284 166.186 87.0113 176.543C88.4399 178.063 89.8995 179.551 91.6387 180.698C94.3406 182.435 97.5084 183.179 100.583 184.079C109.248 186.528 117.602 190.125 125.149 194.994C133.534 200.421 140.863 207.398 149.59 212.266C150.025 212.514 150.522 212.762 151.05 212.7C151.609 212.638 152.044 212.204 152.447 211.77C155.677 208.359 158.876 204.917 162.106 201.506C162.541 201.041 163.007 200.483 162.913 199.862C162.851 199.366 162.448 198.994 162.044 198.684C155.553 193.226 149.093 187.769 142.603 182.311C136.484 177.163 130.273 171.954 123.037 168.574C119.962 167.147 116.732 166.062 113.813 164.356C104.682 159.085 99.7445 148.945 95.3034 139.394C93.2226 134.928 91.1418 130.339 90.7691 125.439C90.3964 120.54 91.794 115.454 90.3033 110.772C88.5951 105.407 83.595 101.903 78.9055 98.8019C90.8002 93.6233 100.645 83.8863 105.925 72.0716C106.204 71.4824 106.453 70.8312 106.36 70.18C106.173 69.1567 105.21 68.5365 104.279 68.0713C99.5892 65.6836 94.3096 64.3192 90.148 61.1252C87.974 59.4507 86.297 57.0629 85.4584 54.4581C84.9615 52.9076 85.3963 49.2795 84.1851 48.1011C81.6695 45.7134 74.1849 50.0857 71.5451 51.4192C62.7561 55.8535 55.1162 62.9237 51.2652 72.1336Z" fill="#374785"/>
<path d="M106.422 22.0539C104.372 21.7438 102.167 21.4337 100.241 22.2709C99.1233 22.7671 98.0984 23.6354 96.8561 23.6044C95.7692 23.5733 94.8375 22.8601 93.7815 22.519C92.7256 22.1779 91.266 22.488 91.1417 23.5733C91.0796 24.0075 91.2659 24.5036 91.0486 24.8758C90.5827 25.62 89.3404 24.9378 88.5951 25.4339C88.8746 26.3642 88.005 27.4185 87.0423 27.3255C86.6385 27.2945 86.2348 27.0774 85.8311 27.2015C85.1168 27.4185 85.0857 28.4109 84.682 29.031C84.0608 29.9303 82.508 30.0234 82.1664 31.0467C82.0111 31.4808 82.1353 31.946 82.2906 32.3801C82.7254 33.5275 83.4086 34.5818 83.7813 35.7291C84.4956 37.8068 84.1851 40.1325 83.4397 42.2102C82.6943 44.2878 81.5142 46.1794 80.4583 48.102C80.0545 48.8152 79.6819 49.5284 79.5887 50.3347C79.4955 51.0479 79.6197 51.7611 79.744 52.4744C80.0235 54.0869 80.303 55.6994 80.5825 57.3119C80.6136 57.4979 80.6446 57.715 80.7999 57.87C80.9552 58.0561 81.2347 58.1181 81.4521 58.1491C82.9117 58.2732 84.2161 57.3119 85.3963 56.4436C90.769 52.5054 96.8561 49.5284 103.254 47.7299C104.527 47.3578 105.863 47.0477 107.043 46.4585C108.409 45.7763 109.589 44.753 110.894 44.0087C112.509 43.0784 114.403 42.4582 115.583 41.0318C116.95 39.4193 117.136 37.1246 117.167 35.0159C117.167 33.4964 117.136 31.977 117.043 30.4575C116.857 27.7597 116.546 25.9921 114.217 24.5346C111.919 22.9842 109.123 22.488 106.422 22.0539Z" fill="#FFDACE"/>
<path d="M105.894 26.6117C104.807 27.511 103.968 28.7824 102.695 29.3716C102.105 29.6507 101.421 29.7747 100.862 30.1468C100.303 30.488 99.8686 31.2322 100.148 31.8214C101.577 31.4803 103.471 31.3562 104.123 32.6896C104.682 33.868 103.626 35.2324 102.415 35.6666C101.204 36.1007 99.8376 35.9146 98.5642 36.0387C98.1916 36.0697 97.8189 36.1317 97.5394 36.3488C97.2599 36.5348 97.0735 36.8449 96.9182 37.124C96.0487 38.7055 95.7692 40.8142 96.8561 42.2716C97.6015 43.2329 98.8127 43.7291 99.6512 44.5973C100.397 45.3726 100.831 46.3959 101.67 47.0781C103.005 48.1945 104.962 48.1014 106.701 47.7603C108.378 47.4502 110.024 46.9851 111.608 46.3959C113.347 45.7757 115.055 45.0315 116.422 43.8221C118.285 42.2096 119.434 39.8529 119.931 37.4341C120.211 36.1317 120.304 34.7673 120.18 33.4339C119.9 29.8678 118.037 26.5187 115.273 24.255C113.689 22.9526 112.664 22.3324 110.894 23.5418C109.279 24.5961 107.415 25.3714 105.894 26.6117Z" fill="#374785"/>
<path d="M115.863 23.8209C115.645 23.2317 115.397 22.6425 114.993 22.1153C114.589 21.5882 113.999 21.1851 113.44 20.8129C112.943 20.4718 112.415 20.0997 111.794 19.9757C111.111 19.8206 110.428 19.9447 109.745 20.0687C108.782 20.2548 107.695 20.5649 107.229 21.4331C106.794 22.2704 107.136 23.2627 107.384 24.193C107.974 26.4257 107.943 28.7824 108.627 30.9841C108.844 31.6973 109.155 32.4106 109.651 32.9687C111.111 34.5192 116.173 35.1394 117.633 33.3098C118.534 32.1935 117.819 30.4569 117.54 29.2786C117.105 27.418 116.546 25.5884 115.863 23.8209Z" fill="#374785"/>
<path d="M106.701 49.2179C108.005 50.8304 108.999 52.722 110.428 54.2415C112.757 56.6912 116.018 57.9936 119.186 59.203C122.944 60.6294 126.795 62.0249 130.087 64.3506C132.447 66.0251 134.434 68.1028 136.764 69.8083C145.366 76.1033 156.982 76.0102 167.044 79.5143C167.696 79.7314 168.504 80.2276 168.348 80.9098C165.988 81.561 163.503 81.778 161.05 81.53C163.286 81.8711 165.429 82.5843 167.417 83.6386C168.162 84.0418 169 84.817 168.659 85.5922C168.317 86.3365 167.261 86.3055 166.454 86.1194C164.311 85.6543 162.199 85.1891 160.056 84.724C161.423 85.8713 162.789 87.0187 164.156 88.166C162.292 89.7475 159.466 88.6002 157.354 87.4218C155.677 86.4915 154 85.5302 152.323 84.5999C151.05 83.8867 149.745 83.1735 148.317 83.0184C146.888 82.8944 145.242 83.5456 144.714 84.879C145.646 86.3675 146.578 87.856 147.54 89.3444C148.006 90.0886 148.503 90.8639 148.596 91.7632C148.689 92.6314 148.286 93.6548 147.447 93.9338C146.267 94.337 145.18 93.2206 144.435 92.2283C141.143 87.8249 137.82 83.4216 134.528 78.9872C133.969 78.2429 133.379 77.4677 132.602 76.9095C131.484 76.1343 130.056 75.9482 128.689 75.7312C117.819 74.0877 107.384 70.3665 97.0424 66.6453C92.5703 65.0328 87.9118 63.3273 84.7129 59.8232C82.3216 57.2184 80.893 53.4042 82.1042 50.0862C83.0048 47.5744 85.2409 45.7448 87.6944 44.7215C94.4958 41.8376 102.011 43.3571 106.701 49.2179Z" fill="#FFDACE"/>
<path d="M247.574 84.7237C248.133 86.3052 248.536 88.0108 248.195 89.6543C247.915 91.0807 247.139 92.3831 246.238 93.5305C242.356 98.492 236.487 101.376 230.99 104.508C223.101 109.004 215.71 114.276 208.225 119.424C205.523 121.284 202.821 123.114 199.871 124.509C196.392 126.184 192.666 127.207 188.97 128.23C195.709 130.432 203.07 129.657 209.933 131.393C214.53 132.572 218.753 134.835 223.256 136.262C232.729 139.27 242.977 138.37 252.884 137.44C254.53 137.285 256.207 137.13 257.636 136.355C259.437 135.394 260.68 133.595 261.58 131.765C264.189 126.37 264.562 120.168 266.487 114.493C268.816 107.733 273.351 101.81 275.09 94.8639C276.829 87.9487 275.618 80.6615 273.723 73.8083C271.829 66.9552 269.189 60.2571 267.978 53.2489C267.357 49.5277 266.829 45.2484 263.661 43.1398C262.17 42.1474 260.338 41.8684 258.537 41.6513C255.12 41.2792 251.673 41.1241 248.257 41.1861C246.704 41.2172 245.151 41.3102 243.692 41.7443C241.952 42.2715 240.431 43.3258 238.909 44.3491C235.244 46.9229 221.921 53.9931 226.455 59.7299C230.772 65.2186 236.518 69.715 241.238 74.8937C243.847 77.8396 246.238 81.0336 247.574 84.7237Z" fill="#F76C6C"/>
<path d="M229.871 59.1107C233.039 59.7929 236.455 59.2657 239.282 57.6532C241.393 56.4438 243.101 54.6763 244.81 52.9398C245.897 51.8234 247.015 50.676 247.449 49.1876C248.226 46.6758 246.766 43.8849 244.592 42.3965C242.418 40.908 239.716 40.4429 237.108 40.2568C234.592 40.0707 231.983 40.1018 229.747 41.2801C228.225 42.0864 227.014 43.3578 225.834 44.5982C220.896 49.9318 216.175 55.6376 209.964 59.3588C206.796 61.2503 203.318 62.5838 199.871 63.9172C187.728 68.5686 175.585 73.2511 163.441 77.9025C158.038 79.9802 152.541 82.1199 148.1 85.779C147.82 85.9961 147.54 86.2751 147.447 86.6163C147.261 87.6086 148.752 87.9497 149.746 87.8256C155.305 87.1124 160.957 86.3682 166.081 84.1665C169.187 82.8331 172.044 80.9725 175.119 79.5771C178.193 78.1506 181.61 77.1893 184.933 77.7475C181.05 81.4997 176.765 84.8177 172.168 87.6396C175.957 86.8333 179.746 86.0581 183.535 85.2518C185.057 84.9417 186.672 84.5696 187.728 83.4223C188.287 82.8021 188.659 81.9648 189.312 81.4686C190.15 80.8174 191.268 80.7554 192.324 80.6934C205.057 79.9802 217.511 75.2667 227.573 67.4213C228.598 66.615 230.834 65.3436 231.145 64.0102C231.393 62.6458 230.058 60.5681 229.871 59.1107Z" fill="#FFDACE"/>
<path d="M139.466 67.8554C146.174 68.6927 152.789 70.1811 159.187 72.2898C158.783 72.8479 158.1 73.158 157.385 73.158C157.603 73.5922 157.82 74.0263 158.007 74.4605C154.125 76.104 149.777 72.2278 145.677 73.2201C144.87 73.4061 144.124 73.8092 143.317 74.0573C140.988 74.7705 138.565 74.1193 136.36 73.2511C134.869 72.6619 131.018 71.4525 130.273 69.902C128.192 65.5607 138.161 67.7003 139.466 67.8554Z" fill="#FFDACE"/>
</g>
<defs>
<clipPath id="clip0">
<rect width="296" height="250" fill="white" transform="translate(0.736084 0.75)"/>
</clipPath>
</defs>
</svg>
