<svg width="164" height="232" viewBox="0 0 164 232" fill="none" xmlns="http://www.w3.org/2000/svg">
<path d="M124.48 38.5395C116.187 36.7449 107.542 36.8626 99.3077 38.8925C88.3391 41.5991 78.3115 47.5712 67.4311 50.5425C61.197 52.2488 54.757 52.9549 48.611 54.8966C37.2307 58.4563 27.3795 66.017 18.0577 73.8426C13.2056 77.9024 8.35356 82.1682 4.94241 87.6402C-2.14454 98.996 -1.32116 115.706 7.88306 125.179C14.3525 131.857 24.2331 134.887 28.7322 143.184C31.7317 148.685 31.7023 155.363 33.1726 161.512C35.1723 169.955 40.4948 177.84 48.1111 181.076C52.7867 183.047 57.9329 183.223 62.9614 183.164C70.4306 183.076 77.8704 182.517 85.2514 181.488C90.427 180.781 95.6613 179.811 100.366 177.428C105.071 175.015 109.041 171.279 113.129 167.837C119.892 162.13 127.185 157.128 134.86 152.892C139.889 150.127 145.299 147.508 148.769 142.713C152.592 137.418 153.357 130.092 151.739 123.649C150.122 117.206 146.329 111.558 141.888 106.851C138.624 103.409 134.978 100.379 132.125 96.5542C125.362 87.5225 124.391 74.4015 128.861 64.0459C130.89 59.3683 137.066 54.4553 137.066 49.1304C137.066 42.5699 129.42 39.628 124.48 38.5395Z" fill="#FFB400"/>
<path d="M55.7568 152.833C55.8744 154.627 56.0508 156.451 56.5507 158.187C57.1977 160.452 58.3739 162.541 59.462 164.63C64.9904 175.309 68.4898 186.871 71.9891 198.374C73.1948 202.375 74.4299 206.435 74.6357 210.641C74.8416 214.348 74.224 218.143 74.871 221.791C75.2533 223.939 75.8414 226.704 73.9888 227.881C72.9301 228.558 71.1363 228.646 70.9893 229.911C70.8717 231.058 72.342 231.588 73.4889 231.735C75.0768 231.941 76.7236 232.147 78.2821 231.794C79.8407 231.441 81.3698 230.382 81.7815 228.823C82.1638 227.499 81.6933 226.087 81.9285 224.763C82.4578 221.497 86.3395 220.173 88.9272 218.143C89.5448 217.673 90.1329 217.055 90.3093 216.29C90.6034 215.084 89.7506 213.907 89.0449 212.877C81.4874 201.845 84.5457 186.635 79.5466 174.22C76.8118 167.425 71.6363 160.982 72.6655 153.745C73.0184 151.303 74.077 149.008 75.1062 146.743C78.6644 138.741 81.6933 130.533 84.7221 122.325C85.2514 120.883 85.7808 119.148 84.928 117.853C84.3104 116.853 83.0754 116.441 81.9285 116.176C75.5473 114.676 68.6368 116.147 63.2554 119.854C60.4324 121.795 59.0503 123.443 58.2563 126.679C57.2859 130.709 56.4625 134.74 56.0214 138.859C55.5803 143.507 55.4627 148.184 55.7568 152.833Z" fill="#FFDACE"/>
<path d="M127.626 108.704C130.655 102.114 135.978 96.5835 142.447 93.318C144.065 92.4942 145.976 91.5234 146.211 89.7288C144.976 89.7582 144.094 88.3461 144.27 87.1399C144.417 85.9337 145.3 84.9335 146.241 84.1392C148.417 82.2857 151.093 81.0796 153.298 79.2556C155.063 77.7552 156.562 75.6076 156.68 73.3717C156.739 72.3715 157.591 71.5771 158.591 71.5771C159.738 71.5771 160.885 71.7831 161.973 72.1949C162.355 72.342 162.767 72.5186 163.002 72.8716C163.267 73.254 163.267 73.7836 163.238 74.2543C162.914 80.6971 161.356 87.5518 156.592 91.8764C155.21 93.1414 153.622 94.1417 152.21 95.4067C150.269 97.1424 148.799 99.3489 147.358 101.526C144.594 105.645 141.83 109.822 140.124 114.47C138.948 117.677 138.124 121.325 135.478 123.502C132.802 125.679 128.95 125.709 125.597 124.914C122.245 124.12 119.098 122.531 115.746 121.825C113.982 121.443 112.188 121.325 110.394 121.06C108.365 120.766 106.365 120.266 104.366 119.795C101.749 119.177 99.1608 118.53 96.5437 117.912C95.2792 117.618 93.9853 117.295 92.8385 116.736C89.4567 115.059 87.3983 111.058 88.0158 107.321C88.1922 106.233 88.6039 105.174 89.3979 104.409C90.0448 103.791 90.8682 103.438 91.6916 103.115C94.3088 102.055 96.9259 100.967 99.7196 100.496C104.866 99.6431 108.777 101.938 113.482 103.438C118.246 104.909 123.598 105.439 127.626 108.704Z" fill="#FFDACE"/>
<path d="M46.7291 70.8128C43.759 89.494 41.4359 109.146 30.5261 124.591C37.6719 129.769 47.2878 129.534 56.1097 128.886C62.8438 128.386 69.6367 127.768 76.0767 125.68C81.3993 123.973 86.3396 121.296 91.1328 118.413C103.278 111.117 115.04 101.968 121.157 89.1998C117.069 89.5234 113.011 88.6408 109.012 87.7877C104.542 86.8168 100.072 85.846 95.5732 84.9046C88.8685 83.4631 82.1639 82.0215 75.518 80.2269C74.9887 80.0798 74.43 79.9327 74.0477 79.5209C73.636 79.0502 73.5772 78.4029 73.5184 77.8146C73.2831 74.6961 73.0479 71.4012 74.4888 68.6063C75.3122 66.9883 76.6355 65.6938 77.3706 64.0464C78.7821 60.9573 77.8411 57.2211 75.9003 54.4557C73.9595 51.6903 71.1364 49.6604 68.3722 47.7187C66.0491 46.0712 63.1967 44.3649 60.5207 45.3651C58.4917 46.13 56.5508 48.3071 54.8747 49.6604C53.0809 51.1019 51.9046 53.1612 50.8754 55.25C48.5523 60.1042 47.5819 65.5173 46.7291 70.8128Z" fill="#F76C6C"/>
<path d="M104.454 40.6871C106.424 46.3062 110.159 51.1898 112.247 56.7794C114.57 63.0163 114.717 70.0475 112.658 76.3726C111.923 78.6379 110.806 80.9032 108.806 82.1682C107.806 82.786 106.659 83.1391 105.513 83.2862C100.69 83.904 95.8966 81.3151 92.7207 77.6377C89.5448 73.9603 87.751 69.312 86.1631 64.7226C85.4867 62.781 84.8692 60.8393 83.8694 59.0153C82.5167 56.5147 80.5465 54.4259 78.5468 52.396C75.9002 49.7188 73.0772 47.1005 69.6367 45.5413C68.9309 45.2177 68.1957 44.9235 67.7252 44.3645C66.8136 43.276 67.1371 41.5109 68.1075 40.4518C69.0779 39.3927 70.4894 38.8631 71.8421 38.4218C77.1647 36.6567 82.6343 35.3034 88.1627 34.4503C91.2504 33.9795 94.4851 33.5677 97.0729 31.8319C99.6018 30.155 100.749 30.361 101.984 33.1852C103.072 35.5976 103.601 38.2159 104.454 40.6871Z" fill="#374785"/>
<path d="M91.8679 37.1271C95.279 36.5975 99.3371 35.8326 100.749 32.6553C100.925 32.2729 101.043 31.8316 100.925 31.4197C100.807 30.9784 100.455 30.6548 100.131 30.3312C99.0137 29.3015 97.8962 28.2425 96.7494 27.2128C96.3377 26.8303 95.8966 26.4185 95.3378 26.2419C94.8673 26.0949 94.3968 26.1243 93.9263 25.9772C92.6031 25.5359 92.1914 23.9178 91.6032 22.6822C91.0151 21.4466 89.3389 20.2698 88.3685 21.2701C88.1333 21.5055 87.9862 21.8585 87.6628 21.9467C87.1334 22.0938 86.6924 21.4172 86.1336 21.4466C85.6337 21.476 85.3985 22.035 85.1044 22.4174C84.8103 22.8293 84.1046 23.0647 83.9281 22.6234C83.8105 22.2115 83.6929 21.7702 83.6047 21.3584C81.9873 21.5643 80.3406 21.7408 78.7232 21.9467C78.3115 22.0056 77.8704 22.0644 77.5175 22.2998C77.0176 22.6528 76.8412 23.2706 76.6353 23.859C75.1944 27.9483 71.3422 30.596 67.7252 32.979C66.4019 30.6254 63.9906 29.0662 61.491 28.0954C58.9915 27.1245 56.3155 26.6538 53.6983 25.9772C52.7573 25.7418 51.6104 25.2417 51.5222 24.2709C51.4928 23.7707 51.7575 23.3 51.9927 22.8587C53.8453 19.7109 55.6979 16.563 57.5505 13.4152C58.021 12.6208 58.521 11.7971 59.2855 11.3264C60.1089 10.8263 61.1381 10.7674 62.1085 10.7086C67.2547 10.4732 72.4008 10.2673 77.5763 10.032C78.2527 10.0025 78.9879 9.97312 79.576 9.59067C80.1641 9.23764 80.5464 8.44332 80.2523 7.82551C80.9581 7.76668 81.6638 7.70784 82.3696 7.67842C81.1051 5.53081 79.1643 3.79508 76.9294 2.73599C75.6943 2.17702 74.4004 1.79457 73.0772 1.44154C70.6658 0.676642 68.1957 0 65.6667 0C63.1378 0 60.4912 0.7649 58.7562 2.61831C58.1387 3.29495 57.6388 4.08927 56.933 4.67766C55.9626 5.53081 54.6981 5.94268 53.4925 6.38397C46.2291 8.97286 39.495 13.0033 33.7607 18.1517C33.2608 18.593 32.7609 19.0637 32.4962 19.6815C31.7905 21.3584 33.1432 23.1529 34.3488 24.5062C38.1717 28.8308 41.4064 33.6262 44.6117 38.4215C47.4347 42.599 50.2577 46.806 53.0808 50.9835C53.8159 52.0426 54.5511 53.1605 54.8157 54.4256C55.4039 57.0145 53.9924 59.8975 55.1392 62.3099C55.5803 63.2808 56.4037 64.0162 57.1977 64.6929C59.8442 66.9582 62.7849 68.8998 65.902 70.459C66.2255 70.6356 66.6077 70.7827 66.9606 70.7238C67.3429 70.6356 67.637 70.3414 67.9016 70.0472C70.2835 67.4583 73.7241 65.8402 75.6061 62.8395C77.7234 59.4857 77.3999 55.1022 76.2825 51.2777C75.6943 49.3066 74.9004 47.3355 73.5771 45.7763C72.342 44.3642 70.5776 43.2757 68.6662 43.2168C75.8708 40.0396 84.1046 38.3038 91.8679 37.1271Z" fill="#FFDACE"/>
<path d="M56.8154 41.0106C58.2269 38.9218 60.697 37.5391 63.226 37.4508C63.4024 37.4508 63.6083 37.4508 63.7553 37.3626C63.9318 37.2743 64.0494 37.0684 64.1376 36.8919C64.5787 36.1564 65.1374 35.5092 65.8432 34.9796C63.8141 34.2736 61.7557 33.5381 59.609 33.5381C58.1387 33.5381 55.051 34.0971 54.5511 35.8328C54.1394 37.2449 56.5213 39.4219 56.8154 41.0106Z" fill="#F76C6C"/>
</svg>
