<svg width="255" height="265" viewBox="0 0 255 265" fill="none" xmlns="http://www.w3.org/2000/svg">
<g clip-path="url(#clip0)">
<path d="M156.118 40.4049C146.983 44.1057 140.554 52.3223 132.468 57.9924C116.396 69.2986 93.3203 69.3665 77.2148 58.1282C65.3049 49.8098 57.7935 36.738 48.5227 25.5337C44.2256 20.3729 38.9812 15.28 32.3495 14.3293C24.6013 13.2428 17.2929 18.0301 11.3379 23.0891C8.5296 25.4658 5.75513 28.0462 4.26638 31.4414C2.30395 35.9232 2.98065 41.1519 4.53706 45.8034C8.02208 56.4305 15.5335 65.1903 20.6764 75.1045C25.8193 85.0186 28.2555 97.8867 21.6576 106.884C18.3418 111.4 13.2665 114.252 9.44315 118.292C0.544522 127.629 -0.572036 142.365 3.45434 154.621C7.48072 166.878 15.7703 177.2 24.0599 187.046C32.3495 196.892 40.9436 206.841 45.8159 218.792C49.5716 228.027 50.9926 238.247 55.9664 246.905C60.9402 255.563 71.429 262.421 80.666 258.72C84.4556 257.192 87.3992 254.137 90.4444 251.386C111.963 231.83 144.005 224.7 171.75 233.256C176.758 234.817 181.63 236.821 186.604 238.484C194.724 241.201 203.183 243.034 211.743 243.34C218.882 243.577 226.191 242.728 232.755 239.944C245.815 234.376 255.086 220.523 254.748 206.297C254.375 190.306 243.142 176.657 230.86 166.437C218.578 156.217 198.886 153.467 189.141 140.837C184.98 135.438 187.247 123.351 187.179 116.527C187.145 110.891 189.378 105.492 191.95 100.433C196.145 92.1147 201.254 84.2717 207.142 77.1077C209.273 74.4933 211.574 71.879 212.657 68.6874C214.788 62.508 211.608 55.2422 206.16 51.7111C201.525 48.6893 197.397 49.3684 192.288 48.961C187.585 48.5875 186.502 46.5164 182.645 43.8002C175.066 38.4696 164.78 36.8738 156.118 40.4049Z" fill="#FFB400"/>
<path d="M197.837 62.6427C198.48 60.9451 198.852 59.1796 199.393 57.448C200.341 54.3922 201.863 51.5063 202.811 48.4505C204.029 44.546 204.333 40.3698 206.127 36.7029C207.175 34.53 208.664 32.6626 210.153 30.7612C212.115 28.2827 214.078 25.8381 216.04 23.3596C216.48 22.8163 217.123 22.2391 217.732 22.5108C218.544 22.8842 218.172 24.1405 217.631 24.8874C216.818 26.0758 215.973 27.2641 215.161 28.4525C217.461 27.5357 219.931 27.0265 222.435 26.9246C223.044 27.6376 222.232 28.7241 221.386 29.0976C220.506 29.471 219.424 29.6748 219.018 30.5236C219.593 30.7952 220.303 31.2366 220.202 31.8477C220.1 32.5607 219.119 32.6965 218.409 32.7644C216.243 33.0021 214.281 34.4621 213.401 36.4653C213.029 37.3141 212.826 38.2987 212.082 38.808C211.777 39.0457 211.371 39.1815 211.067 39.4531C210.322 40.0982 210.39 41.2526 210.491 42.2372C211.202 49.571 209.442 56.8708 207.378 63.9329C204.807 72.7266 201.728 81.3846 198.175 89.8048C197.16 92.1815 196.111 94.5582 195.672 97.1046C195.57 97.7837 195.469 98.4627 195.13 99.0399C194.792 99.6171 194.115 100.058 193.472 99.8887C192.796 99.719 192.423 99.006 192.187 98.3269C190.393 93.6414 189.784 88.5146 190.359 83.5236C190.664 81.045 191.239 78.5665 192.119 76.2238C192.491 75.2391 193.1 74.2885 193.371 73.3038C193.709 72.1834 193.777 71.063 194.217 69.9425C195.198 67.464 196.822 65.2231 197.837 62.6427Z" fill="#FFDACE"/>
<path d="M161.227 61.9643C161.769 61.4889 162.344 61.1155 162.953 60.7759C165.186 59.5876 167.893 59.4178 170.261 60.2667C170.938 60.5043 171.615 60.8438 172.325 60.708C172.934 60.6062 173.442 60.1648 173.983 59.8253C175.912 58.569 178.652 58.7388 180.412 60.2327C182.07 61.6248 182.78 63.8996 182.848 66.0725C182.915 68.2455 182.442 70.3845 182.137 72.5575C182.07 73.1686 182.002 73.8137 182.374 74.2891C182.746 74.7644 183.423 74.8663 184.032 74.9342C186.468 75.1039 188.904 74.8323 191.239 74.1193C191.916 73.9156 192.592 73.6779 193.269 73.644C193.98 73.61 194.724 73.8477 195.13 74.4249C195.739 75.2737 195.333 76.462 194.893 77.4127C194.419 78.4313 193.912 79.4499 193.404 80.4684C192.829 81.5549 192.186 82.6414 191.374 83.5581C189.175 85.9688 185.859 86.9534 182.679 87.6325C181.291 87.9041 179.769 88.1417 178.551 87.4287C177.773 86.9534 177.231 86.1725 176.724 85.3916C172.697 79.6196 167.081 75.1039 162.75 69.5018C162.175 68.7548 161.566 67.9399 160.72 67.5325C160.043 67.2269 159.062 67.4306 158.723 66.6837C158.047 65.2237 160.347 62.7452 161.227 61.9643Z" fill="#374785"/>
<path d="M139.843 110.856C141.434 111.535 143.024 112.214 144.31 113.369C145.494 114.455 146.34 115.881 147.558 116.934C149.013 118.258 151.144 119.311 151.212 121.28C149.859 121.551 148.404 121.076 147.49 120.058C147.592 121.178 149.114 121.551 149.622 122.536C150.096 123.419 149.419 124.675 148.438 124.811C147.456 124.947 146.475 123.894 146.712 122.91C146.103 123.181 145.359 122.808 144.919 122.264C144.513 121.721 144.31 121.042 144.039 120.431C143.328 118.869 142.009 117.579 140.419 116.9C141.129 118.02 141.704 119.243 142.009 120.499C142.11 120.906 142.212 121.348 142.009 121.755C141.569 122.74 139.979 122.298 139.404 121.382C138.828 120.465 138.761 119.311 138.118 118.462C137.712 117.918 137.137 117.579 136.561 117.239C135.377 116.526 134.159 115.779 132.975 115.066C131.689 114.286 130.268 113.233 130.336 111.739C130.403 110.585 131.452 109.702 132.535 109.43C135.174 108.751 137.543 109.872 139.843 110.856Z" fill="#FFDACE"/>
<path d="M85.3353 231.659C83.4067 235.462 81.7488 239.366 80.3277 243.407C78.8051 247.82 77.4856 252.54 74.1697 255.799C73.087 256.886 71.1246 257.667 70.1772 256.478C69.7712 255.969 69.7373 255.222 69.7711 254.577C69.9065 248.058 72.2749 241.709 71.9704 235.19C71.8351 232.542 71.3614 229.554 73.0532 227.517C74.2712 226.023 76.3013 225.514 78.1623 225.106C79.9217 224.699 85.2676 222.458 86.9594 223.782C88.9895 225.344 86.1812 229.927 85.3353 231.659Z" fill="#374785"/>
<path d="M71.5982 160.563C73.4253 165.961 75.2863 171.393 77.1134 176.792C82.2225 191.833 87.3316 206.942 91.0873 222.39C91.2226 222.934 91.3579 223.579 91.0873 224.088C90.8166 224.631 90.2075 224.869 89.6662 225.073C84.5909 226.974 81.4781 228.841 76.4028 230.743C74.9818 231.252 73.3915 231.795 72.0381 231.15C70.3125 230.335 69.8727 228.128 69.5343 226.261C68.5531 220.896 66.7598 215.736 64.9666 210.575C63.7147 207.044 62.4966 203.479 61.2447 199.948C56.7108 186.978 52.1769 174.042 47.5077 161.106C44.8008 153.636 42.0264 145.657 43.9211 137.95C44.1918 136.83 44.564 135.709 45.2069 134.725C47.0001 131.941 50.519 130.854 53.7671 130.379C57.6582 129.836 61.6169 129.903 65.4741 130.582C66.929 130.854 69.0944 130.888 69.602 132.246C70.008 133.367 66.929 136.49 66.8952 137.814C66.5568 145.657 69.1283 153.297 71.5982 160.563Z" fill="#374785"/>
<path d="M63.5793 42.815C63.5793 41.0155 63.4439 39.1482 64.0529 37.4505C65.3725 33.9195 69.4327 32.4255 73.0531 31.4409C76.1997 30.5921 87.5683 35.2436 85.4029 39.6235C85.4029 39.6235 85.6397 38.4012 85.4706 42.136C85.4367 42.815 85.4029 43.4601 85.166 44.0713C84.963 44.5127 84.6585 44.9201 84.4893 45.3615C84.2187 45.9726 84.1848 46.6856 84.0495 47.3307C83.6096 49.9111 82.1209 52.3218 79.9893 53.8496C78.9742 54.5966 77.7562 55.1738 77.0456 56.1924C76.6058 56.8375 76.3689 57.6184 76.0644 58.3314C74.3726 61.9982 69.1959 63.4582 65.8462 61.2513C63.5793 59.7574 60.1957 56.1584 60.8386 53.2724C61.2108 51.6088 62.395 50.1488 62.8687 48.4851C63.4101 46.6856 63.5793 44.7503 63.5793 42.815Z" fill="#FFDACE"/>
<path d="M62.4965 47.7375C61.6845 47.3301 61.6506 46.1757 61.786 45.2929C62.1243 42.5088 62.4627 39.7247 62.7672 36.9745C62.9025 35.7183 63.0717 34.496 63.4439 33.2737C64.9665 28.4185 70.6508 25.2948 75.5569 26.6529C76.3012 26.8567 77.0456 27.1622 77.79 27.4339C79.8878 28.1808 82.087 28.6562 84.0833 29.6747C86.0796 30.6933 87.9067 32.323 88.3804 34.5299C88.8879 36.7029 87.5683 39.3512 85.369 39.6907C85.8427 38.6043 85.369 37.2801 84.5232 36.4652C83.6773 35.6504 82.493 35.243 81.3765 34.9374C80.0231 34.5639 78.602 34.2583 77.1809 34.2923C73.0869 34.3941 69.2974 37.7554 68.6545 41.7958C68.147 42.1014 67.5379 41.5242 67.4364 40.947C67.3349 40.3698 67.5041 39.7586 67.3349 39.1815C66.8951 37.7554 64.5943 37.9252 63.7484 39.1475C62.8349 40.5056 63.3424 41.7958 63.3762 43.2558C63.4101 44.7157 62.9364 46.1757 62.4965 47.7375Z" fill="#374785"/>
<path d="M13.6044 8.96401C12.9277 8.04729 12.5555 6.92685 11.9803 5.97618C10.1193 2.81859 6.39749 1.42653 2.98015 0.238192C2.26961 0.000523944 1.3899 -0.203192 0.95004 0.374002C0.577854 0.849339 0.8147 1.5963 1.25456 1.96977C1.69441 2.34325 2.30344 2.54697 2.84481 2.78464C4.60423 3.56555 5.99147 5.12736 6.53283 6.9608C5.75462 6.75709 4.90875 6.68918 4.23204 7.02871C3.52151 7.36824 3.04782 8.28496 3.42 8.99796C3.55534 9.30353 3.82602 9.50725 4.0967 9.71096C7.1757 12.0876 10.5254 14.0569 13.875 15.9922C14.3487 16.2638 14.8563 16.5354 15.3638 16.6373C17.0894 16.9429 18.7473 14.7359 18.1721 13.1741C17.5292 11.4086 14.7209 10.5258 13.6044 8.96401Z" fill="#FFDACE"/>
<path d="M67.8425 149.698C68.5192 150.241 68.6884 151.158 68.8914 152.006C70.7862 160.698 77.8915 167.794 78.7036 176.656C78.8051 177.743 78.8051 178.897 78.2976 179.882C77.8239 180.866 76.7411 181.613 75.6584 181.409C75.1171 181.308 74.6095 180.968 74.1697 180.629C68.3839 176.079 66.3876 167.998 60.8725 163.143C59.8913 162.294 58.7747 161.479 58.301 160.257C57.3536 157.914 59.2146 155.436 60.9063 153.568C62.3274 152.142 65.2034 147.627 67.8425 149.698Z" fill="#374785"/>
<path d="M95.2827 71.8786C95.7903 72.7274 96.1625 73.6441 96.6361 74.5269C99.546 79.8574 105.332 82.8113 110.001 86.6819C113.757 89.8055 116.903 93.7101 120.997 96.3584C123.129 97.7165 125.497 98.7351 127.291 100.535C128.712 101.927 129.693 103.726 131.046 105.186C132.84 107.155 135.242 108.446 137.61 109.702C135.885 109.396 134.024 110.245 133.144 111.739C132.264 113.233 132.434 115.304 133.584 116.628C129.93 115.1 127.325 111.773 123.907 109.838C122.283 108.921 120.49 108.31 118.764 107.563C113.182 105.084 108.512 100.942 103.437 97.5128C96.67 92.9292 88.8879 89.466 83.6435 83.1508C82.5608 81.8606 81.5795 80.3667 81.3765 78.703C81.1735 77.0054 81.7487 75.3078 82.6284 73.8478C84.1848 71.2335 86.621 69.1963 89.4293 68.1098C90.4443 67.7024 91.2902 66.582 92.2376 67.3289C92.982 67.974 94.6737 70.8939 95.2827 71.8786Z" fill="#374785"/>
<path d="M158.385 107.767C158.114 106.85 157.844 105.865 157.133 105.254C155.814 104.134 153.851 104.847 152.261 105.526C147.862 107.393 143.227 108.683 138.625 109.94C132.163 111.705 125.667 113.471 119.069 114.523C114.873 115.202 110.61 115.61 106.55 116.73C102.456 117.885 98.4632 119.854 95.7564 123.147C95.215 123.792 94.606 124.539 93.794 124.573C92.9819 124.607 92.4067 123.147 93.2188 122.943C92.1361 123.419 91.4255 124.471 90.3766 125.015C89.3277 125.558 87.636 125.15 87.636 123.996C87.636 123.487 87.9743 123.045 88.3127 122.638C95.8579 113.912 107.226 109.668 118.223 106.205C129.219 102.742 140.723 99.5502 149.554 92.1485C151.043 90.9262 152.464 89.5341 154.257 88.8551C156.693 87.9044 159.4 88.3458 161.972 88.5156C166.844 88.8211 171.75 88.0742 176.284 86.3086C178.991 85.2561 181.664 83.8641 184.573 83.6264C185.386 83.5585 186.265 83.5924 187.01 83.932C187.619 84.2375 188.126 84.7129 188.566 85.2561C191.882 89.2965 191.645 95.4419 189.175 100.025C186.705 104.609 182.34 107.903 177.874 110.585C174.118 112.826 169.551 115.304 165.118 115.779C161.464 116.187 159.265 110.653 158.385 107.767Z" fill="#FFDACE"/>
<path d="M166.878 87.5647C167.588 86.3763 166.844 84.5768 165.491 84.2373C164.814 84.0675 164.137 84.2033 163.46 84.1694C161.633 84.0675 160.145 82.6755 158.859 81.3513C158.148 80.6044 157.404 79.8574 157.099 78.8728C156.761 77.8882 156.998 76.6659 157.844 76.1226C157.37 75.9189 157.066 75.3757 157.167 74.8324C157.235 74.3231 157.675 73.8818 158.182 73.7799C156.66 72.9311 156.254 70.86 156.626 69.1624C157.066 67.0912 158.419 65.2578 160.178 64.0695C161.938 62.8811 164.069 62.3379 166.201 62.3379C166.776 62.3379 167.351 62.3718 167.859 62.6774C168.434 63.0169 168.806 63.6281 169.179 64.2053C170.058 65.6992 171.006 67.4308 170.6 69.1284C170.498 69.6377 170.261 70.2149 170.498 70.6902C170.904 71.4372 172.122 71.1316 172.63 70.4526C173.137 69.7735 173.408 68.8907 174.085 68.3475C175.032 67.6005 176.69 68.0759 177.096 69.2303C177.333 69.9433 177.164 70.7242 177.028 71.4711C176.453 74.6287 176.758 77.9561 177.874 80.9779C178.077 81.555 178.348 82.1322 178.889 82.4718C179.295 82.7094 181.19 83.762 181.664 83.762C182.916 83.7959 183.119 83.3885 184.269 82.9131C185.453 82.4378 186.13 80.876 187.01 79.9253C189.683 77.0394 192.356 74.1194 194.284 70.7242C194.927 69.6037 195.874 68.2117 197.16 68.4833C197.532 68.5852 197.871 68.8228 198.141 69.0945C198.953 69.9772 199.156 71.2335 199.224 72.4558C199.596 77.2091 198.92 82.0643 197.228 86.5121C196.72 87.8702 196.077 89.2283 195.739 90.6543C195.401 92.0464 195.367 93.4724 195.299 94.8984C195.232 96.63 195.164 98.3955 195.096 100.127C195.062 100.908 195.029 101.757 194.69 102.47C194.115 103.658 192.795 104.371 191.476 104.473C190.156 104.575 188.871 104.201 187.653 103.692C184.777 102.538 182.171 100.772 179.837 98.769C178.179 97.343 176.622 95.7812 174.829 94.5589C172.833 93.1668 170.532 92.2501 168.13 91.8087C167.182 91.639 163.833 91.4692 163.731 90.179C163.63 88.8888 166.303 88.5153 166.878 87.5647Z" fill="#FFDACE"/>
<path d="M166.912 94.83C167.622 98.0555 166.201 101.349 164.712 104.303C163.224 107.257 161.532 110.312 161.701 113.606C161.802 116.05 162.919 118.325 164.036 120.498C165.118 122.671 166.269 124.912 168.265 126.304C173.679 130.073 182.137 125.591 187.314 129.699C187.957 130.209 188.532 130.854 189.243 131.295C189.953 131.737 190.867 131.94 191.611 131.567C192.592 131.024 192.762 129.699 192.829 128.545C193.1 122.705 193.811 116.865 194.927 111.093C195.841 106.476 196.957 101.553 195.198 97.2067C193.404 92.8268 189.107 90.0767 186.468 86.1721C185.792 85.1536 185.149 83.9992 184.1 83.388C183.051 82.7769 181.393 82.3355 181.055 83.5238C183.152 84.7461 184.743 87.5302 185.386 89.873C185.622 90.6878 185.724 91.6385 185.216 92.3176C184.946 92.6571 184.574 92.9287 184.201 93.1324C181.799 94.4226 178.957 94.5584 176.216 94.5924C174.017 94.6263 171.615 94.5584 169.923 93.1324C168.772 92.1478 166.269 86.308 164.239 87.9716C162.344 89.4995 166.539 93.2343 166.912 94.83Z" fill="#F76C6C"/>
<path d="M164.881 235.054C164.848 235.937 164.746 236.854 164.374 237.635C163.629 239.196 161.836 240.113 161.261 241.743C160.754 243.135 161.295 244.663 161.802 246.055C162.885 248.975 164.002 251.861 165.084 254.781C165.998 257.225 166.945 259.67 168.569 261.707C170.194 263.744 172.663 265.238 175.269 265.034C175.539 265 175.844 264.967 176.081 264.797C176.994 264.084 175.844 262.794 175.066 261.945C173.306 260.111 173.34 257.259 173.476 254.713C174.321 238.246 175.269 221.609 179.633 205.719C180.479 202.562 181.494 199.438 183.051 196.586C179.566 198.419 175.675 199.438 171.75 199.574C163.9 199.879 163.765 206.534 163.833 213.087C163.866 220.387 165.287 227.687 164.881 235.054Z" fill="#FFDACE"/>
<path d="M159.434 149.324C159.4 155.266 161.938 160.902 163.02 166.742C163.156 167.489 163.257 168.304 162.953 169.017C162.648 169.696 162.005 170.171 161.43 170.681C156.626 174.823 156.558 182.598 152.024 187.012C150.468 188.54 148.268 189.864 148.099 192.037C153.039 194.889 158.08 197.809 163.596 199.269C170.972 201.238 178.889 200.593 186.231 198.386C193.574 196.179 200.374 192.58 206.938 188.642C210.525 186.469 214.213 184.058 216.175 180.357C216.615 179.508 217.055 178.524 217.935 178.116C218.442 177.879 219.051 177.913 219.627 177.913C222.469 177.98 225.345 177.675 228.119 177.064C228.458 176.996 228.83 176.894 229.1 176.622C229.439 176.283 229.473 175.774 229.54 175.298C229.709 173.329 229.845 171.326 230.014 169.357C230.42 164.162 230.555 158.254 226.833 154.655C225.176 153.059 222.976 152.176 220.845 151.328C216.108 149.46 211.405 147.593 206.668 145.692C201.965 143.824 196.923 141.685 194.216 137.373C192.355 134.385 191.848 130.651 189.716 127.832C188.634 126.373 187.213 125.252 185.724 124.267C182.577 122.162 178.754 120.635 174.93 120.601C173.239 120.601 170.633 120.77 169.246 121.891C167.96 122.909 167.791 124.539 167.216 126.135C164.441 133.74 159.502 140.938 159.434 149.324Z" fill="#F76C6C"/>
<path d="M184.37 180.459C182.34 182.428 179.701 183.888 176.859 183.956C176.081 183.99 175.269 183.888 174.491 184.126C173.205 184.499 172.359 185.688 171.615 186.808C167.724 192.682 163.799 199.031 163.765 206.093C163.765 206.365 163.765 206.67 163.9 206.908C164.239 207.451 165.084 207.417 165.592 207.01C166.1 206.603 166.336 205.957 166.641 205.414C167.96 202.936 170.566 201.476 172.9 199.914C177.367 196.892 181.258 193.089 185.589 189.898C195.739 182.36 208.021 178.286 219.187 172.378C220.506 171.665 221.86 170.918 222.807 169.764C223.788 168.61 224.33 166.98 223.788 165.588C223.01 163.449 220.303 162.77 218.036 162.736C212.826 162.702 207.751 164.433 203.081 166.708C199.19 168.61 195.502 170.851 191.679 172.888C190.021 173.77 189.141 174.076 188.092 175.672C187.077 177.335 185.859 179.033 184.37 180.459Z" fill="#FFDACE"/>
<path d="M218.273 164.976C213.739 166.538 209.205 168.066 204.671 169.696C194.521 173.329 184.506 177.335 174.626 181.647C173.611 182.089 172.596 182.53 171.716 183.209C169.991 184.533 168.874 186.57 167.013 187.691C166.641 187.928 166.201 188.098 165.795 187.996C165.287 187.894 164.915 187.419 164.712 186.944C163.968 185.348 164.171 183.413 164.881 181.783C165.592 180.153 166.742 178.761 167.893 177.403C169.788 175.196 171.682 173.023 173.645 170.918C175.539 168.881 177.468 166.844 179.701 165.248C182.882 162.939 186.604 161.513 190.359 160.427C198.92 157.914 207.953 156.998 216.852 157.744C219.728 157.982 222.739 158.457 224.939 160.325C226.529 161.649 227.476 163.55 228.052 165.52C228.356 166.538 229.676 170.477 228.525 171.224C227.341 171.971 223.856 169.832 222.875 169.22C222.435 168.915 218.172 165.01 218.273 164.976Z" fill="#F76C6C"/>
<path d="M61.1093 52.2202C54.6468 50.5565 48.8949 48.791 43.6842 44.5809C38.203 40.167 34.6841 33.8518 30.9623 27.8762C27.7818 22.8512 24.3644 17.996 20.7102 13.3445C20.338 12.8691 19.9658 12.3938 19.4245 12.1901C18.4771 11.8166 17.4621 12.3259 16.5823 12.8352C15.0259 13.718 13.4695 14.6686 12.353 16.0267C11.2364 17.4188 10.6612 19.388 11.4056 21.0178C12.1838 22.7493 14.0785 23.5642 15.4996 24.8544C18.0711 27.2311 18.7478 30.9659 20.4057 34.0895C21.9621 37.0094 24.3644 39.3182 26.5299 41.7967C29.5073 45.2939 31.9773 49.1645 34.4473 53.069C36.6804 56.6001 38.9473 60.233 39.5225 64.3752C40.0977 68.6193 38.7782 72.8634 37.9323 77.0735C35.4962 89.1267 36.8496 101.621 38.2368 113.844C37.0526 114.319 35.8683 114.761 34.718 115.236C31.7743 116.391 28.6276 117.341 25.887 118.869C22.199 120.94 18.5109 123.011 14.8568 125.082C12.7928 126.237 10.6274 127.527 9.57848 129.666C7.58221 133.774 13.0297 137.917 16.244 141.142C28.0186 152.958 40.8421 161.989 57.0153 165.927C57.3198 165.995 57.6581 166.063 57.9627 166.029C58.504 165.961 58.9439 165.52 59.3161 165.113C63.2071 160.767 65.5417 155.063 65.8801 149.223C65.9139 148.612 65.9139 147.966 65.5417 147.491C64.8988 146.71 63.6808 146.88 62.6996 146.982C57.6581 147.627 52.346 144.877 49.9437 140.395C55.1205 139.512 60.2973 138.46 65.4064 137.271C66.8613 136.932 68.35 136.592 69.6358 135.811C72.5456 134.046 73.899 130.515 74.4403 127.154C75.9629 117.817 69.4328 106.85 72.4441 97.8864C75.9968 87.2932 90.6135 85.9691 94.5722 75.5117C95.3166 73.5424 95.6549 71.7769 94.3354 70.1472C92.982 68.4835 90.6135 63.6283 88.5496 63.1529C85.0984 62.3381 78.8727 61.5572 77.3163 58.3656C76.8765 57.4828 75.5907 56.7359 74.6772 57.0754C74.3388 57.1773 74.6772 57.0754 74.4403 57.347C72.5117 59.52 72.8163 58.807 70.1771 59.9953C58.3348 65.258 50.1468 76.2247 42.5 86.716C44.1579 75.9531 49.4024 65.8012 57.1844 58.2298C58.707 56.5661 59.4852 53.8499 61.1093 52.2202Z" fill="#374785"/>
<path d="M61.1094 52.22C61.9215 52.4916 63.2072 53.7139 63.9854 54.0535C67.5043 55.6832 71.5645 55.6832 75.151 57.1092C75.8954 57.4148 76.7412 57.8901 76.8766 58.705C76.9781 59.3501 76.6059 59.9273 76.1999 60.4365C74.5758 62.4397 72.1397 63.6281 70.1434 65.2918C68.181 66.9215 66.5907 68.9586 64.9328 70.8939C63.2749 72.8292 61.4478 74.7306 59.147 75.851C56.8462 76.9715 54.0041 77.2431 51.8048 75.9868C50.6544 75.3417 49.7747 74.3232 48.9965 73.2706C47.8122 71.6069 46.8987 69.8075 46.1205 67.9401C45.6468 66.7517 45.1731 65.4955 45.2746 64.2392C45.3423 63.1188 45.816 62.0663 46.3235 61.0477C47.0002 59.6896 47.7784 58.2975 48.9965 57.3808C49.7747 56.7697 50.6882 56.3622 51.6018 55.9887C53.0905 55.3436 54.6131 54.6986 56.1018 54.0535C57.7936 53.2725 59.3162 51.6089 61.1094 52.22Z" fill="#374785"/>
<path d="M50.7896 65.4277C47.4737 67.9063 44.3609 70.7922 42.094 74.3233C39.8608 77.8204 38.5074 82.0305 38.8458 86.1728C38.9135 87.1574 39.1165 88.2099 39.7932 88.9569C40.3007 89.5341 41.0112 89.8736 41.7556 90.0434C43.2782 90.3829 44.9023 90.1113 46.3233 89.4322C47.7444 88.7532 48.9625 87.7346 50.0114 86.5802C50.9249 85.5956 51.7369 84.543 52.2783 83.3207C53.0904 81.4873 53.1919 79.4162 53.2595 77.413C53.361 75.3079 53.4287 73.135 52.6505 71.1657C52.3121 70.283 51.7708 69.4341 51.7708 68.5174C51.7708 68.1779 51.8385 67.8044 51.8046 67.4649C51.7708 67.1254 51.6016 66.7519 51.2633 66.65" fill="#374785"/>
<path d="M65.0003 58.399C66.8274 56.6674 69.1282 55.4112 71.5982 54.834C70.9892 54.3926 70.2786 54.1889 69.5681 54.0191C68.5869 53.7815 65.2033 52.4573 64.3913 53.3061C63.9176 53.8154 64.3575 54.9698 64.4928 55.547C64.5266 55.8865 65.2033 58.2293 65.0003 58.399Z" fill="#FFDACE"/>
</g>
<defs>
<clipPath id="clip0">
<rect width="254" height="265" fill="white" transform="translate(0.78125)"/>
</clipPath>
</defs>
</svg>
