<svg width="208" height="203" viewBox="0 0 208 203" fill="none" xmlns="http://www.w3.org/2000/svg">
<g clip-path="url(#clip0)">
<path d="M103.383 57.4609C87.3443 55.672 71.0232 54.8247 55.0784 57.4138C39.1336 60.003 23.4711 66.264 11.6183 77.2796C5.69191 82.7874 0.612155 89.9899 0.235877 98.0869C-0.234471 109.714 8.79621 119.271 17.4976 126.991C26.1991 134.711 35.8412 143.185 37.1582 154.718C38.24 163.898 33.6776 173.313 35.9823 182.257C37.4874 188.142 41.9087 192.991 47.1295 196.051C52.3504 199.157 58.3708 200.617 64.3443 201.558C74.5978 203.159 85.5099 203.018 94.7758 198.404C100.232 195.721 104.841 191.578 110.25 188.801C120.833 183.387 133.344 183.717 144.868 180.986C156.25 178.303 167.115 172.278 174.17 162.91C178.262 157.402 180.99 150.952 185.177 145.539C189.739 139.701 195.853 135.276 201.78 130.898C203.755 129.439 205.778 127.886 206.671 125.626C207.988 122.284 206.389 118.518 204.414 115.505C193.972 99.3579 174.265 92.2495 155.827 86.7417C144.397 83.3052 137.766 79.398 132.215 68.8531C127.324 59.391 112.931 58.5436 103.383 57.4609Z" fill="#FFB400"/>
<path d="M63.874 176.373C62.9333 177.362 61.8515 178.444 60.4875 178.68C58.8413 179.009 57.1951 178.021 55.5489 177.644C53.7145 177.173 51.7861 177.409 49.9047 177.267C48.0703 177.079 46.3301 176.561 44.5427 176.232C40.2626 175.432 35.7943 175.855 31.7493 177.409C30.6675 177.832 29.5857 178.35 28.4098 178.35C27.2339 178.35 25.964 177.785 25.6818 176.656C25.5407 176.232 25.5877 175.714 25.4937 175.29C25.0703 173.784 23.0008 173.407 21.5898 174.066C20.1787 174.725 19.191 175.949 17.9681 176.938C14.0642 180.092 8.04376 179.951 4.61022 183.576C3.85766 184.376 3.29325 185.694 4.0458 186.447C4.37505 186.777 4.84539 186.871 5.31574 186.965C11.5243 188.189 17.9211 189.46 24.1767 188.377C26.3403 188.001 28.5039 187.342 30.7145 187.059C39.3219 185.929 47.6 190.449 56.2074 191.343C58.5591 191.578 60.9108 191.578 63.3096 191.531C64.5795 191.531 65.8965 191.484 67.0724 191.108C68.0601 190.778 68.9538 190.26 69.8004 189.695C74.4098 186.871 78.9722 184.093 83.5816 181.269C87.2503 179.009 90.966 176.75 94.0233 173.69C95.7636 171.948 97.2217 169.924 99.1031 168.276C101.831 165.828 105.735 163.663 105.735 159.991C100.232 157.825 94.1644 160.179 88.5202 162.015C86.0274 162.815 83.4875 163.569 80.9006 164.181C78.8781 164.651 76.056 164.651 74.2217 165.593C70.4589 167.617 66.7902 173.266 63.874 176.373Z" fill="#FFDACE"/>
<path d="M175.205 111.268C176.381 111.174 177.604 111.08 178.639 111.645C179.203 111.974 179.674 112.445 180.097 113.01C184.471 118.612 183.907 126.473 183.766 133.629C183.531 144.974 184.942 156.319 187.905 167.24C188.845 170.677 189.927 174.161 189.551 177.644C189.363 179.339 188.845 180.986 188.845 182.681C188.845 184.376 189.504 186.259 191.009 187.012C192.044 187.53 193.267 187.436 194.396 187.671C195.524 187.906 196.747 188.566 196.841 189.742C193.831 190.778 190.633 191.249 187.434 191.061C186.729 191.013 186.023 190.966 185.412 190.59C184.706 190.213 184.236 189.507 183.86 188.801C181.602 184.658 181.226 179.245 177.416 176.467C175.582 175.149 172.901 174.255 172.666 171.995C172.383 169.265 176.052 167.852 177.087 165.263C177.886 163.192 176.758 160.932 175.723 158.955C170.69 149.681 166.316 139.419 167.304 128.921C155.592 137.348 141.811 142.243 128.218 147.092C127.935 147.186 127.653 147.281 127.371 147.186C126.995 147.045 126.854 146.621 126.76 146.245C126.242 144.55 125.725 142.714 126.148 141.02C126.618 139.137 128.077 137.677 129.535 136.359C133.344 132.828 137.107 129.298 140.917 125.767C145.385 121.625 149.901 117.388 155.357 114.563C161.095 111.645 168.762 111.88 175.205 111.268Z" fill="#FFDACE"/>
<path d="M54.8434 101.806C53.7616 106.702 52.6798 111.598 51.598 116.494C51.4099 117.435 51.1747 118.377 51.4099 119.271C51.6451 120.26 52.3036 121.06 53.0561 121.766C57.9007 126.191 65.3322 125.673 71.823 124.873C75.2095 124.449 78.596 124.073 81.9355 123.649C84.7105 123.32 87.8619 123.084 90.0255 124.826C91.9539 126.332 92.6124 129.063 92.2831 131.464C91.9539 133.912 90.778 136.124 89.6021 138.242C83.9109 148.646 77.6083 158.72 71.3527 168.794C95.5285 169.783 120.692 165.264 140.447 151.282C145.997 147.328 151.171 142.62 154.604 136.736C156.203 134.006 157.379 131.134 158.508 128.168C160.578 122.849 162.412 116.682 159.825 111.645C150.23 114.987 140.541 117.906 130.711 120.448C130.052 120.589 129.394 120.778 128.735 120.636C127.794 120.448 127.089 119.742 126.383 119.036C116.882 109.291 106.441 100.535 95.1993 92.909C91.3895 90.3198 87.5326 87.8719 83.6287 85.424C81.8884 84.3413 80.0541 83.2115 78.0316 82.8349C76.4794 82.5524 74.9273 82.7878 73.3751 82.9761C69.1891 83.541 62.8394 83.2585 60.3465 87.0716C57.3833 91.685 56.0193 96.5808 54.8434 101.806Z" fill="#F76C6C"/>
<path d="M62.4629 117.623C64.4854 118.329 66.4609 119.365 67.9189 120.966C70.8821 124.214 71.1643 129.015 71.4936 133.393C71.9169 138.713 72.6224 143.985 73.7042 149.211C74.6449 153.918 75.7738 159.096 73.469 163.333C71.9169 166.158 69.0478 167.994 66.4609 169.924C64.9087 171.054 63.4036 172.325 61.9926 173.596C60.2052 175.243 58.465 176.985 56.3484 178.209C54.2318 179.433 51.5979 179.998 49.3402 179.009C48.7758 178.774 48.1643 178.35 48.1173 177.738C48.0232 177.079 48.5877 176.514 49.058 176.091C52.0682 173.454 55.5018 171.101 57.3832 167.57C57.9946 166.44 58.4179 165.216 59.1705 164.228C59.7819 163.38 60.5815 162.721 61.287 161.968C63.8269 159.238 64.7676 155.33 64.5795 151.612C64.3913 147.893 63.1214 144.315 61.6633 140.878C59.7349 136.406 57.3832 131.981 53.6204 128.921C51.1275 126.897 45.7656 122.237 49.3402 118.659C52.3034 115.552 58.9353 116.352 62.4629 117.623Z" fill="#FFDACE"/>
<path d="M47.4589 91.2611C46.0478 90.0842 44.872 88.4837 43.0846 88.1541C41.6736 87.9188 40.3096 88.5307 39.0867 89.284C38.2401 89.8018 37.4405 90.4138 36.6879 91.0728C36.2646 91.4494 35.8413 91.826 35.2769 91.7789C35.0417 91.7789 34.8535 91.6848 34.6654 91.6377C34.054 91.5906 33.5836 92.2026 33.3955 92.7675C32.9251 94.2739 33.5836 96.0157 32.784 97.3809C32.3137 98.1341 31.467 98.6049 30.7615 99.1227C27.7983 101.382 27.0928 105.478 26.6695 109.197C26.5754 109.997 26.4814 110.844 26.8106 111.598C27.1398 112.351 27.7983 112.916 28.4568 113.434C31.1378 115.505 34.148 117.623 37.5816 117.67C41.1092 117.67 44.2135 115.458 47.5529 114.328C51.0335 113.151 54.7963 113.198 58.465 112.916C62.1337 112.586 65.9435 111.833 68.7186 109.385C71.964 106.466 73.0458 101.759 72.6695 97.428C72.6225 96.8631 72.5284 96.2511 72.2462 95.7803C71.9169 95.2625 71.3996 94.8859 70.8352 94.5564C67.1194 92.3909 62.6981 91.7319 58.512 92.5792C54.5141 93.3795 50.7983 94.0386 47.4589 91.2611Z" fill="#FFDACE"/>
<path d="M32.9253 107.832C32.2198 108.538 31.0439 108.726 30.1973 108.255C29.4447 107.832 28.8803 107.031 28.0807 106.796C27.093 106.513 26.0582 107.173 25.5408 108.02C25.0234 108.867 24.9294 109.95 24.7883 110.939C24.365 115.269 23.8946 119.6 23.4713 123.931C23.2832 125.814 23.095 127.65 23.1891 129.533C23.4713 135.606 26.4815 141.208 27.8926 147.139C28.4099 149.399 28.7392 151.706 29.5388 153.918C30.7617 157.166 33.0664 159.897 34.6656 162.957C35.6063 164.793 36.4059 166.817 38.005 168.135C40.5919 170.206 44.3547 169.547 47.459 168.37C52.4447 166.487 57.2423 163.051 58.7944 157.967C59.9232 154.295 59.2177 150.341 58.5122 146.575C57.8067 142.714 57.0541 138.901 56.3486 135.041C55.8312 132.358 55.3138 129.627 54.3261 127.085C53.2913 124.402 51.6451 121.719 52.0214 118.847C52.3036 116.635 53.8087 114.61 53.7146 112.351C53.6676 111.692 53.4795 110.986 53.0091 110.562C52.5858 110.138 51.9273 109.997 51.3159 109.95C49.8108 109.809 48.2586 110.185 46.7535 110.232C45.2484 110.28 43.5551 109.95 42.5674 108.82C42.2382 108.444 41.956 107.973 41.4856 107.832C40.8271 107.643 40.1686 108.255 39.8864 108.867C39.5572 109.479 39.4161 110.232 38.8517 110.703C37.8169 111.598 36.0296 110.75 35.5592 109.479C35.23 108.585 35.8414 106.702 35.0889 106.137C34.0541 105.195 33.5367 107.22 32.9253 107.832Z" fill="#374785"/>
<path d="M27.6103 0.5C26.4814 1.58273 26.8577 3.46574 27.6573 4.83093C28.4569 6.19611 29.6328 7.32592 30.0091 8.83232C30.3853 10.48 29.7739 12.3159 30.4324 13.9165C31.4671 16.3644 34.8536 16.5527 37.1113 18.0591C40.0745 19.9892 40.6859 23.9435 41.5326 27.38C43.6491 36.0418 48.3526 43.7622 51.7391 52.0004C56.2544 63.016 58.2769 74.8789 59.4528 86.7419C59.4998 87.401 59.5939 88.1542 60.0643 88.672C60.4876 89.0957 61.052 89.284 61.6634 89.4723C64.3444 90.2255 67.0724 90.9787 69.8475 90.7904C72.6225 90.6021 75.4917 89.4252 76.9497 87.0714C77.326 86.4594 77.6082 85.7533 77.5612 85.0001C77.5142 84.1528 77.0908 83.3525 76.6675 82.5993C68.2483 67.0644 65.1911 48.8463 55.4078 34.1588C51.5039 28.1803 46.5653 22.9549 43.9313 16.4114C43.2729 14.7638 42.7555 13.0691 42.0029 11.4685C40.4508 8.40865 37.9579 5.91366 35.5121 3.55989C35.2299 3.32452 34.9007 3.04206 34.5714 3.08914C33.9129 3.23037 34.054 4.17187 34.3363 4.78385C35.0888 6.33733 35.8414 7.89082 36.5939 9.4443C35.7943 10.3858 34.1481 10.0092 33.4896 8.97355C32.8311 7.93789 32.9252 6.61979 33.1604 5.39583C33.3956 4.21895 33.8189 2.99499 33.6778 1.77103C33.6307 1.48858 33.5837 1.15905 33.3956 0.923677C32.643 0.0763225 31.279 1.39443 31.3731 2.52424C31.4201 3.51282 32.0315 4.54847 31.7023 5.53705C30.1502 4.1248 29.2565 2.00641 27.6103 0.5Z" fill="#FFDACE"/>
</g>
<defs>
<clipPath id="clip0">
<rect width="207" height="202" fill="white" transform="translate(0.236084 0.5)"/>
</clipPath>
</defs>
</svg>
