<svg width="60" height="60" viewBox="0 0 60 60" fill="none" xmlns="http://www.w3.org/2000/svg">
<path d="M30.1169 56.5294C44.9402 56.5294 56.9568 44.5128 56.9568 29.6895C56.9568 14.8662 44.9402 2.84961 30.1169 2.84961C15.2936 2.84961 3.27698 14.8662 3.27698 29.6895C3.27698 44.5128 15.2936 56.5294 30.1169 56.5294Z" stroke="#F2F2F2" stroke-width="5.08628" stroke-miterlimit="10" stroke-linecap="round" stroke-linejoin="round"/>
<path fill-rule="evenodd" clip-rule="evenodd" d="M18.79 32.8625C18.7899 32.8624 18.7899 32.8624 18.7899 32.8624C15.662 29.7345 15.662 24.6632 18.7899 21.5354C21.9177 18.4075 26.989 18.4075 30.1168 21.5353C33.2447 18.4075 38.3159 18.4075 41.4438 21.5354C44.5717 24.6632 44.5717 29.7345 41.4438 32.8624L41.4437 32.8625L41.4438 32.8626L31.531 42.7754C30.75 43.5565 29.4837 43.5565 28.7026 42.7754L18.7898 32.8626L18.79 32.8625Z" fill="#F2F2F2"/>
</svg>
