<svg width="60" height="59" viewBox="0 0 60 59" fill="none" xmlns="http://www.w3.org/2000/svg">
<path d="M30.1169 56.422C44.9402 56.422 56.9568 44.4054 56.9568 29.5821C56.9568 14.7588 44.9402 2.74219 30.1169 2.74219C15.2936 2.74219 3.27698 14.7588 3.27698 29.5821C3.27698 44.4054 15.2936 56.422 30.1169 56.422Z" stroke="#A8D0E6" stroke-width="5.08628" stroke-miterlimit="10" stroke-linecap="round" stroke-linejoin="round"/>
<path fill-rule="evenodd" clip-rule="evenodd" d="M18.79 32.755C18.79 32.7549 18.7899 32.7549 18.7899 32.7549C15.662 29.627 15.662 24.5557 18.7899 21.4279C21.9178 18.3 26.989 18.3 30.1169 21.4278C33.2447 18.3 38.316 18.3 41.4438 21.4279C44.5717 24.5557 44.5717 29.627 41.4438 32.7549L41.4437 32.755L41.4439 32.7551L31.5311 42.6679C30.75 43.449 29.4837 43.449 28.7027 42.6679L18.7899 32.7551L18.79 32.755Z" fill="#A8D0E6"/>
</svg>
