<svg width="32" height="30" viewBox="0 0 32 30" fill="none" xmlns="http://www.w3.org/2000/svg">
<path d="M14.0227 2.97396C14.6214 1.13134 17.2282 1.13134 17.8269 2.97396L19.3518 7.66697C19.8873 9.31506 21.4231 10.4309 23.156 10.4309H28.0905C30.028 10.4309 30.8335 12.9101 29.2661 14.0489L25.274 16.9494C23.872 17.968 23.2854 19.7734 23.8209 21.4215L25.3457 26.1145C25.9445 27.9572 23.8355 29.4894 22.2681 28.3506L18.2759 25.4502C16.874 24.4316 14.9756 24.4316 13.5737 25.4502L9.58155 28.3506C8.01412 29.4894 5.90516 27.9571 6.50386 26.1145L8.02872 21.4215C8.56421 19.7734 7.97758 17.968 6.57563 16.9494L2.58352 14.0489C1.01609 12.9101 1.82164 10.4309 3.75908 10.4309H8.69361C10.4265 10.4309 11.9623 9.31506 12.4978 7.66697L14.0227 2.97396Z" fill="#F2F2F2" stroke="#F2F2F2" stroke-width="2"/>
</svg>
