<svg width="31" height="30" viewBox="0 0 31 30" fill="none" xmlns="http://www.w3.org/2000/svg">
<path d="M13.5979 3.12923C14.1966 1.28661 16.8034 1.28661 17.4021 3.12923L18.927 7.82225C19.4625 9.47034 20.9983 10.5862 22.7312 10.5862H27.6657C29.6032 10.5862 30.4087 13.0654 28.8413 14.2042L24.8492 17.1047C23.4472 18.1232 22.8606 19.9287 23.3961 21.5768L24.9209 26.2698C25.5196 28.1124 23.4107 29.6447 21.8433 28.5059L17.8511 25.6054C16.4492 24.5869 14.5508 24.5869 13.1489 25.6054L9.15674 28.5059C7.58932 29.6447 5.48036 28.1124 6.07906 26.2698L7.60391 21.5768C8.13941 19.9287 7.55278 18.1232 6.15083 17.1047L2.15871 14.2042C0.591281 13.0654 1.39684 10.5862 3.33428 10.5862H8.26881C10.0017 10.5862 11.5375 9.47034 12.073 7.82225L13.5979 3.12923Z" stroke="#F2F2F2" stroke-width="2"/>
</svg>
